<svg width="379" height="549" viewBox="0 0 379 549" fill="none" xmlns="http://www.w3.org/2000/svg">
<g clip-path="url(#clip0_4_3)">
<path d="M181.335 168.942C191.828 168.942 200.335 160.436 200.335 149.942C200.335 139.449 191.828 130.942 181.335 130.942C170.842 130.942 162.335 139.449 162.335 149.942C162.335 160.436 170.842 168.942 181.335 168.942Z" fill="#6C63FF"/>
<path d="M191.089 142.024C190.803 141.751 190.423 141.599 190.028 141.599C189.633 141.599 189.253 141.751 188.967 142.024C184.936 145.239 181.315 148.938 178.185 153.037C177.417 151.55 176.649 150.064 175.881 148.577C174.994 146.862 172.404 148.377 173.29 150.092C174.414 152.266 175.538 154.44 176.661 156.614C176.797 156.836 176.987 157.019 177.214 157.146C177.441 157.274 177.696 157.341 177.956 157.341C178.216 157.341 178.472 157.274 178.699 157.146C178.926 157.019 179.116 156.836 179.252 156.614C182.586 151.917 186.572 147.719 191.089 144.145C191.368 143.863 191.524 143.482 191.524 143.084C191.524 142.687 191.368 142.306 191.089 142.024V142.024Z" fill="white"/>
<path d="M96.3197 203.819L67.6682 158.824L100.846 141.055L109.554 175.385L170.909 208.54C173.332 207.668 175.955 207.52 178.46 208.114C180.965 208.707 183.244 210.017 185.017 211.883C186.791 213.749 187.983 216.091 188.449 218.622C188.915 221.154 188.634 223.767 187.64 226.142C186.647 228.517 184.984 230.552 182.854 231.998C180.724 233.444 178.219 234.239 175.645 234.286C173.071 234.334 170.539 233.631 168.358 232.264C166.176 230.897 164.439 228.925 163.359 226.588L96.3197 203.819Z" fill="#A0616A"/>
<path d="M46.7352 104.856C37.7328 118.074 69.7251 166.119 69.7251 166.119C71.2837 162.759 86.1821 200.485 88.6775 198.256C95.7696 191.922 106.872 174.28 113.043 173.493C116.572 173.044 104.858 148.015 104.858 148.015C104.858 148.015 99.5041 133.235 92.2395 114.356C90.2847 108.981 87.0017 104.187 82.6959 100.422C78.3901 96.6562 73.2017 94.0415 67.6135 92.8207C67.6135 92.8207 55.7377 91.6383 46.7352 104.856Z" fill="#3F3D56"/>
<path d="M47.175 535.491L60.782 535.49L67.255 483.005L47.172 483.006L47.175 535.491Z" fill="#A0616A"/>
<path d="M43.7035 531.048L47.5335 531.048L62.4866 524.967L70.501 531.047H70.5021C75.0312 531.047 79.3747 532.847 82.5773 536.049C85.7799 539.252 87.5792 543.595 87.5796 548.124V548.679L43.7043 548.681L43.7035 531.048Z" fill="#2F2E41"/>
<path d="M110.391 535.491L123.998 535.49L130.472 483.005L110.389 483.006L110.391 535.491Z" fill="#A0616A"/>
<path d="M106.92 531.048L110.75 531.048L125.703 524.967L133.718 531.047H133.719C138.248 531.047 142.591 532.847 145.794 536.049C148.997 539.252 150.796 543.595 150.796 548.124V548.679L106.921 548.681L106.92 531.048Z" fill="#2F2E41"/>
<path d="M116.281 248.552L27.7738 250.764C10.9644 259.894 10.7091 279.655 16.2168 303.117C16.2168 303.117 14.3575 317.062 18.0761 320.78C21.7947 324.499 23.6541 324.499 21.7947 331.006C19.9354 337.514 29.759 348.143 28.5659 349.336C27.3727 350.529 24.5837 357.037 24.5837 357.037L33.8803 410.027C33.8803 410.027 40.3879 502.063 42.2472 503.922C44.1065 505.782 45.9658 503.922 44.1065 508.571C42.2472 513.219 40.3879 511.36 42.2472 513.219C43.8942 514.995 45.4458 516.857 46.8955 518.797H69.3719C69.3719 518.797 71.0665 509.5 71.0665 508.571C71.0665 507.641 72.9258 502.063 72.9258 501.133C72.9258 500.204 71.2824 498.56 71.2824 498.56C70.7146 496.671 70.3309 494.73 70.1368 492.767C70.1368 490.907 64.5589 419.324 64.5589 419.324L75.7148 326.358L102.675 417.464C102.675 417.464 102.675 497.415 104.534 499.274C106.393 501.133 106.393 500.204 105.464 503.922C104.534 507.641 100.815 506.711 103.604 509.5C106.393 512.289 107.323 507.641 106.393 512.289L105.464 516.938L133.353 517.337C133.353 517.337 137.072 509.5 135.213 506.711C133.353 503.922 133.465 504.684 135.733 500.12C138.002 495.556 138.931 494.626 138.002 493.696C137.072 492.767 137.072 487.822 137.072 487.822L132.424 398.871C132.424 398.871 131.494 304.976 131.494 302.187C131.424 300.752 131.688 299.32 132.266 298.005V294.219L128.705 280.805L116.281 248.552Z" fill="#2F2E41"/>
<path d="M63.1135 64.5149C78.3011 64.5149 90.6132 52.2029 90.6132 37.0152C90.6132 21.8275 78.3011 9.5155 63.1135 9.5155C47.9258 9.5155 35.6138 21.8275 35.6138 37.0152C35.6138 52.2029 47.9258 64.5149 63.1135 64.5149Z" fill="#A0616A"/>
<path d="M76.8633 82.6903C82.7878 86.2124 86.3318 92.6838 88.3662 99.269C92.1327 111.461 94.3998 124.066 95.1176 136.806L97.2664 174.947L123.879 256.161C100.815 275.677 14.1196 260.597 14.1196 260.597C14.1196 260.597 11.4583 259.71 14.1196 257.048C16.7808 254.387 19.3716 256.745 16.7104 254.083C14.0491 251.422 15.8837 254.387 16.7708 251.726C17.6579 249.064 16.7708 250.839 15.8837 249.952C14.9966 249.064 22.751 241.081 22.751 241.081L15.6544 194.463L6.78354 100.432C17.4286 87.1257 38.8372 79.2817 38.8372 79.2817L44.3689 69.3246L72.0274 71.5373L76.8633 82.6903Z" fill="#3F3D56"/>
<path d="M85.7827 22.4051C87.92 23.9992 89.5034 26.2235 90.3101 28.7649C90.62 24.6117 90.6397 20.442 90.369 16.2862C90.0449 13.3658 87.9889 12.7089 85.6082 11.9478C83.4582 11.2601 81.0267 10.4833 80.3725 7.64828C71.7282 -0.761096 56.6802 -0.337038 46.3817 2.59628C40.715 4.21041 37.4543 6.28428 37.1626 7.49918L37.1021 7.7493L36.872 7.86436C32.5039 10.0484 31.6536 16.9452 31.7098 22.3462C31.8162 32.522 35.3297 44.0792 37.309 45.0181C37.4138 45.0678 37.4403 45.0483 37.4856 45.0105C40.4659 42.6287 44.1021 45.1915 45.7 46.5847C46.6425 40.2602 49.6771 34.434 54.3193 30.0366C58.9614 25.6391 64.9433 22.9241 71.3095 22.3252C73.3885 22.1242 75.451 21.7784 77.4818 21.2902C78.512 21.0237 79.571 20.8847 80.635 20.8764C82.4667 20.8486 84.263 21.382 85.7827 22.4051V22.4051Z" fill="#2F2E41"/>
<path d="M256.497 270.464L309.397 216.746L323.334 173.783L300.906 164.711C289.795 175.918 278.359 210.226 278.359 210.226L242.253 258.684C241.965 258.791 241.677 258.905 241.394 259.039C239.732 259.823 238.3 261.024 237.237 262.524C236.174 264.024 235.516 265.772 235.327 267.601C235.137 269.429 235.423 271.276 236.155 272.962C236.888 274.648 238.043 276.116 239.509 277.225C240.975 278.334 242.703 279.046 244.524 279.293C246.346 279.539 248.201 279.311 249.908 278.632C251.616 277.952 253.12 276.843 254.274 275.412C255.429 273.982 256.194 272.277 256.497 270.464Z" fill="#FFB8B8"/>
<path d="M294.788 169.626L323.151 177.831L323.257 177.81C333.682 175.786 341.929 158.46 347.012 144.282C348.683 139.605 348.517 134.468 346.547 129.91C344.576 125.351 340.949 121.71 336.397 119.724V119.724C333.029 118.282 329.325 117.81 325.703 118.362C322.081 118.914 318.686 120.469 315.902 122.849L301.76 135.027L294.788 169.626Z" fill="#6C63FF"/>
<path d="M270.521 533.895L255.267 533.894L248.011 475.059L270.523 475.06L270.521 533.895Z" fill="#FFB8B8"/>
<path d="M274.412 528.915L270.119 528.914L253.356 522.098L244.372 528.913H244.371C239.294 528.914 234.425 530.931 230.835 534.521C227.245 538.111 225.227 542.98 225.227 548.057V548.679L274.411 548.681L274.412 528.915Z" fill="#2F2E41"/>
<path d="M338.204 533.895L322.95 533.894L315.694 475.059L338.207 475.06L338.204 533.895Z" fill="#FFB8B8"/>
<path d="M342.095 528.915L337.802 528.914L321.039 522.098L312.055 528.913H312.054C306.977 528.914 302.108 530.931 298.518 534.521C294.928 538.111 292.911 542.98 292.91 548.057V548.679L342.094 548.681L342.095 528.915Z" fill="#2F2E41"/>
<path d="M361.463 280.47C361.463 280.47 363.244 301.843 358.791 322.326C354.338 342.809 354.338 400.496 354.338 400.496L344.542 512.908L315.153 510.236L307.138 322.326L278.64 385.557L281.312 394.462L277.753 396.689C277.753 396.689 280.421 414.055 278.64 414.055C276.859 414.055 272.406 416.726 272.406 416.726L275.968 508.455L245.689 507.564L235.002 378.432L246.58 304.515L247.47 290.266L251.478 290.431L253.518 284.477L257.267 274.236L361.463 280.47Z" fill="#2F2E41"/>
<path d="M363.002 284.959L363.161 284.736C371.638 272.868 358.889 244.35 356.966 240.216L365.065 237.588L363.241 222.085L362.377 215.174L368.567 208.984L368.584 208.829L372.147 177.659L377.326 156.957C379.278 149.13 379.111 140.926 376.844 133.185C374.577 125.444 370.291 118.446 364.426 112.909L352.453 101.621L337.903 80.0919H314.44L306.395 95.288C298.595 97.0907 291.675 101.573 286.839 107.953C282.004 114.333 279.561 122.208 279.934 130.205L281.758 170.06L274.62 219.683L274.615 228.663L266.582 237.591L268.336 246.361L262.223 248.981L259.523 261.578C258.406 263.052 251.033 272.884 251.033 275.572C251.033 275.975 251.33 276.365 251.97 276.798C256.995 280.201 284.769 287.138 297.062 282.219C310.156 276.983 362.207 284.837 362.732 284.917L363.002 284.959Z" fill="#6500B4"/>
<path d="M323.141 73.142C340.303 73.142 354.215 59.2295 354.215 42.0676C354.215 24.9056 340.303 10.9931 323.141 10.9931C305.979 10.9931 292.066 24.9056 292.066 42.0676C292.066 59.2295 305.979 73.142 323.141 73.142Z" fill="#FFB8B8"/>
<path d="M320.164 73.6451C324.976 73.596 329.776 73.1358 334.51 72.2697C339.196 71.19 349.537 63.194 352.355 58.4703C354.449 54.9606 355.706 49.532 356.392 45.5962C357.318 40.3874 357.139 35.0423 355.868 29.9068C354.597 24.7714 352.261 19.9602 349.012 15.7848C347.76 14.0356 346.058 12.6574 344.087 11.7959C343.912 11.7329 343.733 11.6777 343.552 11.6311C340.695 10.9576 338.104 9.44546 336.112 7.28872C335.725 6.85208 335.308 6.44385 334.862 6.06723C332.628 4.27819 330.002 3.04335 327.199 2.46365C322.67 1.3761 316.192 2.73893 307.945 6.51774C303.802 8.41628 299.204 7.88663 295.659 7.21305C295.46 7.17997 295.257 7.19951 295.068 7.26969C294.879 7.33988 294.712 7.45829 294.583 7.61312C293.12 9.05968 291.163 9.89876 289.106 9.96173C287.848 10.0496 286.571 11.8281 285.032 14.1441C284.683 14.6698 284.276 15.2834 283.98 15.6578L283.921 14.9546L283.229 15.7586C282.14 17.0223 281.389 18.5408 281.046 20.1728C280.703 21.8047 280.778 23.497 281.264 25.0921C281.751 26.6872 282.634 28.1333 283.83 29.2955C285.026 30.4578 286.496 31.2984 288.105 31.7393C289.381 32.0438 290.684 32.2171 291.996 32.2568C292.79 32.3076 293.613 32.3603 294.402 32.4764C296.939 32.9279 299.315 34.0295 301.299 35.6735C303.283 37.3175 304.806 39.4478 305.721 41.8565C305.937 42.4131 306.278 42.9127 306.717 43.3166C307.157 43.7205 307.684 44.018 308.256 44.1861C308.829 44.3542 309.433 44.3884 310.021 44.2861C310.61 44.1837 311.166 43.9476 311.649 43.5959C312.451 42.937 313.401 42.482 314.418 42.2697C315.434 42.0574 316.487 42.094 317.486 42.3766C318.355 42.8307 319.041 43.5698 319.43 44.4699C319.9 45.4717 320.657 46.3109 321.606 46.8803C324.841 48.444 325.25 55.7307 324.26 61.8395C323.306 67.7277 321.23 72.0231 319.213 72.2849C317.659 72.4862 317.484 72.6015 317.379 72.8798L317.284 73.129L317.465 73.3551C318.333 73.6447 319.254 73.7437 320.164 73.6451V73.6451Z" fill="#2F2E41"/>
<path d="M294.383 172.949L279.446 153.917C264.231 158.107 237.235 182.17 237.235 182.17L181.793 206.229C179.943 205.918 178.043 206.1 176.285 206.757C174.528 207.414 172.974 208.522 171.781 209.97C170.587 211.418 169.796 213.155 169.488 215.005C169.179 216.856 169.363 218.756 170.022 220.513C170.681 222.27 171.791 223.822 173.24 225.014C174.69 226.205 176.427 226.994 178.279 227.301C180.13 227.607 182.029 227.42 183.785 226.76C185.541 226.099 187.092 224.987 188.282 223.536L260.909 203.274L294.383 172.949Z" fill="#FFB8B8"/>
<path d="M290.803 177.3L314.371 151.028L315.679 132.412C315.923 128.756 315.139 125.105 313.417 121.872C311.694 118.638 309.102 115.951 305.932 114.113V114.113C301.619 111.651 296.531 110.919 291.699 112.065C286.866 113.21 282.649 116.148 279.9 120.284C271.572 132.835 262.614 149.804 267.223 159.371L267.27 159.468L290.803 177.3Z" fill="#6500B4"/>
<path d="M73.5793 276.05L12.3249 244.679C7.96789 242.447 6.52464 236.529 9.10773 231.485L49.0469 153.501C51.63 148.458 57.2762 146.17 61.6332 148.401L122.888 179.772C127.245 182.004 128.688 187.923 126.105 192.966L86.1656 270.95C83.5826 275.994 77.9364 278.281 73.5793 276.05Z" fill="#E6E6E6"/>
<path d="M63.1133 261.628L21.4963 240.314C17.4157 238.224 16.0638 232.681 18.483 227.958L51.6637 163.17C54.083 158.446 59.371 156.304 63.4516 158.394L113.716 184.137C117.797 186.227 119.149 191.77 116.729 196.493L98.7039 231.689C87.9282 252.73 81.2899 270.937 63.1133 261.628Z" fill="white"/>
<path d="M83.6897 226.248L46.8283 207.369C46.3776 207.048 46.0575 206.576 45.9264 206.038C45.7952 205.5 45.8619 204.933 46.1142 204.441C46.3664 203.948 46.7875 203.563 47.3004 203.355C47.8133 203.147 48.3839 203.131 48.9079 203.309L85.7693 222.187C86.22 222.509 86.5401 222.981 86.6713 223.519C86.8024 224.056 86.7357 224.623 86.4835 225.116C86.2312 225.608 85.8101 225.994 85.2972 226.202C84.7843 226.409 84.2137 226.426 83.6897 226.248V226.248Z" fill="#6C63FF"/>
<path d="M51.1319 219.7L42.7197 215.392C42.269 215.071 41.9488 214.598 41.8177 214.06C41.6866 213.523 41.7533 212.956 42.0056 212.463C42.2579 211.971 42.6789 211.585 43.1918 211.377C43.7048 211.169 44.2753 211.153 44.7994 211.331L53.2115 215.639C53.6622 215.961 53.9823 216.433 54.1134 216.971C54.2446 217.508 54.1779 218.075 53.9256 218.568C53.6733 219.061 53.2523 219.446 52.7394 219.654C52.2264 219.862 51.6559 219.878 51.1319 219.7V219.7Z" fill="#6C63FF"/>
<path d="M61.9221 235.353L38.611 223.414C38.1603 223.093 37.8402 222.62 37.7091 222.083C37.578 221.545 37.6446 220.978 37.8969 220.486C38.1492 219.993 38.5702 219.608 39.0832 219.4C39.5961 219.192 40.1666 219.176 40.6907 219.354L64.0018 231.292C64.4525 231.613 64.7726 232.086 64.9037 232.624C65.0348 233.161 64.9682 233.728 64.7159 234.221C64.4636 234.713 64.0425 235.099 63.5296 235.307C63.0167 235.515 62.4461 235.531 61.9221 235.353V235.353Z" fill="#6C63FF"/>
<path d="M98.2767 197.766L61.4153 178.887C60.9646 178.566 60.6444 178.094 60.5133 177.556C60.3822 177.018 60.4488 176.451 60.7011 175.959C60.9534 175.466 61.3744 175.081 61.8874 174.873C62.4003 174.665 62.9709 174.649 63.4948 174.827L100.356 193.705C100.807 194.027 101.127 194.499 101.258 195.037C101.389 195.574 101.323 196.141 101.07 196.634C100.818 197.126 100.397 197.512 99.8842 197.72C99.3713 197.928 98.8007 197.944 98.2767 197.766V197.766Z" fill="#6C63FF"/>
<path d="M65.7188 191.218L57.3067 186.91C56.8559 186.589 56.5358 186.116 56.4047 185.578C56.2736 185.041 56.3403 184.474 56.5925 183.981C56.8448 183.489 57.2659 183.103 57.7788 182.895C58.2917 182.688 58.8623 182.671 59.3863 182.849L67.7984 187.157C68.2491 187.479 68.5693 187.951 68.7004 188.489C68.8315 189.027 68.7648 189.593 68.5125 190.086C68.2603 190.579 67.8392 190.964 67.3263 191.172C66.8134 191.38 66.2428 191.396 65.7188 191.218V191.218Z" fill="#6C63FF"/>
<path d="M76.5091 206.871L53.198 194.932C52.7473 194.611 52.4272 194.138 52.2961 193.601C52.165 193.063 52.2316 192.496 52.4839 192.004C52.7362 191.511 53.1572 191.126 53.6702 190.918C54.1831 190.71 54.7537 190.694 55.2777 190.872L78.5888 202.81C79.0395 203.131 79.3596 203.604 79.4907 204.142C79.6218 204.679 79.5552 205.246 79.3029 205.739C79.0506 206.231 78.6296 206.617 78.1166 206.825C77.6037 207.033 77.0331 207.049 76.5091 206.871L76.5091 206.871Z" fill="#6C63FF"/>
<path d="M22.8204 208.158L8.98224 156.64L45.9616 149.64L43.973 185.001L92.5608 235.031C95.1331 234.926 97.6804 235.571 99.8921 236.889C102.104 238.206 103.884 240.139 105.017 242.451C106.149 244.763 106.584 247.354 106.269 249.909C105.954 252.464 104.903 254.873 103.242 256.84C101.582 258.808 99.3857 260.25 96.9202 260.991C94.4547 261.732 91.8269 261.739 89.3572 261.012C86.8875 260.286 84.6827 258.856 83.0115 256.898C81.3403 254.939 80.275 252.537 79.9455 249.984L22.8204 208.158Z" fill="#A0616A"/>
<path d="M5.19816 98.8788C-7.35397 108.788 8.75672 164.216 8.75672 164.216C11.2511 161.479 14.1496 201.936 17.1985 200.558C25.8636 196.643 41.7457 183.142 47.8685 184.243C51.3701 184.872 47.7015 157.482 47.7015 157.482C47.7015 157.482 47.0268 141.778 45.7586 121.589C45.506 115.874 43.8117 110.317 40.8334 105.433C37.8551 100.55 33.6896 96.4996 28.7248 93.6591C28.7248 93.6591 17.7503 88.9695 5.19816 98.8788Z" fill="#3F3D56"/>
<path d="M214.054 322.504L180.628 306.72C179.913 306.384 179.283 305.891 178.786 305.277C178.289 304.664 177.938 303.945 177.758 303.176C177.577 302.424 177.568 301.641 177.733 300.885C177.898 300.129 178.232 299.42 178.71 298.811C188.392 286.437 195.041 271.965 198.123 256.558C198.356 255.378 198.99 254.315 199.919 253.551C200.848 252.787 202.012 252.369 203.215 252.367C220.263 252.425 233.004 258.65 241.083 270.867C241.509 271.502 241.791 272.223 241.91 272.978C242.029 273.734 241.982 274.507 241.771 275.242C237.093 291.366 229.975 306.679 220.663 320.649C219.972 321.705 218.922 322.475 217.707 322.816C216.491 323.157 215.194 323.046 214.054 322.504Z" fill="#E6E6E6"/>
<path d="M223.887 300.366L198.329 288.297C197.693 287.997 197.203 287.456 196.965 286.795C196.728 286.133 196.763 285.404 197.064 284.768C197.364 284.132 197.904 283.641 198.566 283.404C199.228 283.167 199.957 283.202 200.593 283.502L226.151 295.571C226.466 295.72 226.749 295.929 226.983 296.187C227.216 296.445 227.397 296.746 227.515 297.074C227.632 297.402 227.684 297.749 227.667 298.097C227.65 298.445 227.565 298.786 227.417 299.101C227.268 299.416 227.059 299.698 226.801 299.932C226.543 300.166 226.242 300.347 225.914 300.464C225.586 300.582 225.238 300.634 224.891 300.617C224.543 300.6 224.202 300.515 223.887 300.366H223.887Z" fill="white"/>
<path d="M227.857 291.958L202.299 279.889C201.663 279.589 201.173 279.048 200.936 278.386C200.698 277.725 200.734 276.995 201.034 276.36C201.334 275.724 201.875 275.233 202.537 274.996C203.199 274.759 203.928 274.794 204.563 275.094L230.122 287.163C230.757 287.463 231.248 288.004 231.485 288.666C231.723 289.328 231.687 290.057 231.387 290.693C231.087 291.328 230.546 291.819 229.884 292.056C229.222 292.294 228.493 292.258 227.857 291.958V291.958Z" fill="white"/>
</g>
<defs>
<clipPath id="clip0_4_3">
<rect width="379" height="549" fill="white"/>
</clipPath>
</defs>
</svg>
