<svg width="107" height="53" viewBox="0 0 107 53" fill="none" xmlns="http://www.w3.org/2000/svg">
<path d="M15.9562 6.68526C15.9562 8.22279 15.5038 9.43191 14.5999 10.3121C13.696 11.1928 12.4473 11.6329 10.8526 11.6329C9.11229 11.6329 7.75183 11.1197 6.76971 10.0939C5.78811 9.0685 5.29756 7.63599 5.29756 5.79682C5.29756 3.97876 5.78553 2.55809 6.76251 1.5353C7.73845 0.511997 9.07883 0.000346604 10.7826 0.000346604C12.1379 0.000346604 13.2837 0.363753 14.2185 1.09108C15.1533 1.81841 15.6937 2.75574 15.8389 3.90413H13.0104C12.8709 3.40535 12.6027 3.0126 12.2084 2.72743C11.8136 2.44175 11.3406 2.29866 10.7903 2.29866C9.98014 2.29866 9.34752 2.60235 8.89301 3.21026C8.43849 3.81817 8.21098 4.66697 8.21098 5.7577C8.21098 6.86491 8.45548 7.73739 8.94397 8.37567C9.43194 9.01497 10.0893 9.33411 10.9149 9.33411C11.5588 9.33411 12.0885 9.16064 12.5044 8.81216C12.9203 8.4642 13.1483 8.00711 13.19 7.4409L13.1978 7.27001H11.1409V5.30628H15.9562V6.68526Z" fill="white"/>
<path d="M21.2852 4.54244C20.844 4.54244 20.4724 4.69069 20.1713 4.98666C19.8702 5.28263 19.7013 5.662 19.6648 6.12423H22.8906C22.8644 5.64655 22.7048 5.26307 22.4114 4.97534C22.1175 4.68657 21.7428 4.54244 21.2852 4.54244ZM22.9529 8.71131H25.4463C25.311 9.59923 24.8734 10.307 24.1332 10.8346C23.393 11.3617 22.4619 11.6252 21.3397 11.6252C19.9685 11.6252 18.8937 11.2279 18.1144 10.4326C17.3351 9.63835 16.9454 8.54247 16.9454 7.14547C16.9454 5.74796 17.3325 4.63767 18.1062 3.81409C18.8803 2.99102 19.9268 2.57923 21.2466 2.57923C22.5401 2.57923 23.5722 2.97249 24.3432 3.75952C25.1148 4.54656 25.5004 5.59971 25.5004 6.91899V7.70602H19.6334V7.87743C19.6334 8.4071 19.7945 8.83742 20.1167 9.16685C20.4384 9.4968 20.8595 9.66152 21.3789 9.66152C21.7634 9.66152 22.0954 9.5771 22.3759 9.40826C22.6564 9.23995 22.849 9.00728 22.9529 8.71131" fill="white"/>
<path d="M29.5601 8.94079C29.8458 9.37472 30.2432 9.59142 30.7523 9.59142C31.2613 9.59142 31.6587 9.37472 31.9444 8.94079C32.2301 8.50738 32.3732 7.8933 32.3732 7.09803C32.3732 6.32437 32.2275 5.71647 31.9367 5.27534C31.6459 4.83369 31.251 4.61287 30.7523 4.61287C30.2483 4.61287 29.852 4.83266 29.5642 5.27122C29.2755 5.71029 29.1319 6.31871 29.1319 7.09803C29.1319 7.8933 29.2744 8.50738 29.5601 8.94079ZM33.9936 10.4325C33.2091 11.2278 32.1287 11.6252 30.7523 11.6252C29.3759 11.6252 28.2954 11.2262 27.5115 10.4294C26.7265 9.63208 26.3343 8.52179 26.3343 7.09803C26.3343 5.70103 26.7322 4.59846 27.5264 3.79083C28.3217 2.98321 29.3964 2.57914 30.7523 2.57914C32.1132 2.57914 33.1896 2.98063 33.9817 3.78259C34.7739 4.58559 35.1698 5.69073 35.1698 7.09803C35.1698 8.52643 34.778 9.63826 33.9936 10.4325" fill="white"/>
<path d="M36.2845 11.4381V2.76576H38.9647V4.43403H39.0187C39.1907 3.8776 39.4995 3.43647 39.9458 3.10858C40.3926 2.78223 40.9094 2.61803 41.4967 2.61803C42.1406 2.61803 42.6734 2.77812 43.0939 3.09725C43.515 3.41691 43.7873 3.86988 43.9119 4.45668H43.9664C44.1383 3.89613 44.4667 3.44882 44.9521 3.11681C45.4375 2.78429 46.0027 2.61803 46.6467 2.61803C47.4934 2.61803 48.179 2.88981 48.7036 3.43235C49.2281 3.9754 49.4906 4.68574 49.4906 5.56337V11.4381H46.7326V6.26444C46.7326 5.80221 46.6276 5.45321 46.4171 5.21643C46.2066 4.98017 45.8962 4.86229 45.4859 4.86229C45.0963 4.86229 44.7859 4.99201 44.5548 5.25143C44.3236 5.51138 44.2083 5.85934 44.2083 6.29584V11.4381H41.5744V6.22532C41.5744 5.78882 41.4663 5.45321 41.2512 5.21643C41.0355 4.98017 40.7282 4.86229 40.3277 4.86229C39.9432 4.86229 39.6333 4.99458 39.3971 5.25916C39.1603 5.52476 39.0419 5.87478 39.0419 6.31128V11.4381H36.2845Z" fill="white"/>
<path d="M54.9055 4.54244C54.4644 4.54244 54.0928 4.69069 53.7916 4.98666C53.4905 5.28263 53.3217 5.662 53.2851 6.12423H56.511C56.4847 5.64655 56.3252 5.26307 56.0318 4.97534C55.7379 4.68657 55.3631 4.54244 54.9055 4.54244ZM56.5733 8.71131H59.0667C58.9313 9.59923 58.4938 10.307 57.7536 10.8346C57.0134 11.3617 56.0822 11.6252 54.9601 11.6252C53.5888 11.6252 52.5141 11.2279 51.7347 10.4326C50.9554 9.63835 50.5658 8.54247 50.5658 7.14547C50.5658 5.74796 50.9528 4.63767 51.7265 3.81409C52.5007 2.99102 53.5471 2.57923 54.8669 2.57923C56.1605 2.57923 57.1925 2.97249 57.9636 3.75952C58.7352 4.54656 59.1207 5.59971 59.1207 6.91899V7.70602H53.2537V7.87743C53.2537 8.4071 53.4148 8.83742 53.7371 9.16685C54.0588 9.4968 54.4798 9.66152 54.9992 9.66152C55.3837 9.66152 55.7157 9.5771 55.9963 9.40826C56.2768 9.23995 56.4693 9.00728 56.5733 8.71131" fill="white"/>
<path d="M60.9204 0.849735H63.6784V2.7661H65.2448V4.80756H63.6784V8.50853C63.6784 9.11643 64.0135 9.42013 64.6842 9.42013C64.8762 9.42013 65.0631 9.40726 65.2448 9.38101V11.3447C64.9277 11.4173 64.5226 11.4539 64.0295 11.4539C62.9176 11.4539 62.1213 11.268 61.6411 10.8969C61.1608 10.5253 60.9204 9.91325 60.9204 9.06135V4.80756H59.7597V2.7661H60.9204V0.849735Z" fill="white"/>
<path d="M66.4373 11.4381V2.76575H69.1176V4.39439H69.1716C69.4887 3.23108 70.1717 2.64942 71.2208 2.64942C71.4699 2.64942 71.7041 2.68546 71.9224 2.75855V5.12686C71.683 5.02289 71.387 4.97141 71.0339 4.97141C70.4415 4.97141 69.987 5.13355 69.6704 5.45836C69.3538 5.78316 69.1948 6.24899 69.1948 6.8569V11.4381H66.4373Z" fill="white"/>
<path d="M74.0804 14.6089C73.4622 14.6089 73.1271 14.6038 73.0757 14.594V12.5057C73.1014 12.5109 73.2625 12.5134 73.558 12.5134C74.4727 12.5134 74.9766 12.2592 75.0703 11.7496L75.1089 11.5087L72.1481 2.76582H75.1949L76.7921 9.34985H76.8467L78.4439 2.76582H81.3578L78.5685 11.4227C78.1994 12.5757 77.6713 13.3952 76.9831 13.8806C76.2943 14.366 75.3271 14.6089 74.0804 14.6089Z" fill="white"/>
<path d="M12.1691 28.9392H8.57008L4.98595 17.6963H8.23447L10.4005 26.1421H10.4633L12.6216 17.6963H15.7533L12.1691 28.9392Z" fill="white"/>
<path d="M19.8982 22.0435C19.4571 22.0435 19.0855 22.1918 18.7843 22.4877C18.4832 22.7837 18.3144 23.1631 18.2778 23.6253H21.5037C21.4774 23.1476 21.3179 22.7642 21.0245 22.4764C20.7306 22.1877 20.3558 22.0435 19.8982 22.0435ZM21.566 26.2124H24.0594C23.924 27.1003 23.4865 27.8081 22.7463 28.3357C22.0061 28.8628 21.0749 29.1263 19.9528 29.1263C18.5815 29.1263 17.5068 28.7289 16.7274 27.9337C15.9481 27.1394 15.5585 26.0436 15.5585 24.6466C15.5585 23.249 15.9456 22.1388 16.7192 21.3152C17.4934 20.4921 18.5398 20.0803 19.8596 20.0803C21.1532 20.0803 22.1852 20.4736 22.9563 21.2606C23.7279 22.0476 24.1134 23.1008 24.1134 24.4201V25.2071H18.2464V25.3785C18.2464 25.9082 18.4075 26.3385 18.7298 26.6679C19.0515 26.9979 19.4725 27.1626 19.9919 27.1626C20.3764 27.1626 20.7084 27.0782 20.989 26.9093C21.2695 26.741 21.462 26.5084 21.566 26.2124" fill="white"/>
<path d="M25.2201 28.9392V20.2669H27.9003V21.8955H27.9544C28.1886 21.319 28.5417 20.8789 29.0142 20.5752C29.4867 20.271 30.056 20.1191 30.7206 20.1191C31.6867 20.1191 32.4434 20.4079 32.9921 20.9839C33.5398 21.5609 33.8136 22.3608 33.8136 23.3836V28.9392H31.0479V23.9756C31.0479 23.4722 30.9162 23.0789 30.6547 22.7953C30.3922 22.5127 30.0246 22.3711 29.5521 22.3711C29.0847 22.3711 28.7054 22.5271 28.414 22.8385C28.1237 23.1504 27.9775 23.5525 27.9775 24.0461V28.9392H25.2201Z" fill="white"/>
<path d="M35.8551 18.3509H38.6131V20.2672H40.1795V22.3087H38.6131V26.0097C38.6131 26.6176 38.9482 26.9213 39.6189 26.9213C39.8109 26.9213 39.9978 26.9084 40.1795 26.8821V28.8459C39.8624 28.9184 39.4573 28.955 38.9642 28.955C37.8523 28.955 37.056 28.7692 36.5758 28.398C36.0955 28.0264 35.8551 27.4144 35.8551 26.5625V22.3087H34.6944V20.2672H35.8551V18.3509Z" fill="white"/>
<path d="M49.9265 20.267V28.9394H47.2386V27.303H47.184C46.9869 27.8692 46.6559 28.3078 46.1906 28.6197C45.7258 28.9311 45.1688 29.0871 44.5197 29.0871C43.5685 29.0871 42.8 28.7963 42.2137 28.2141C41.6264 27.633 41.333 26.8382 41.333 25.8309V20.267H44.0909V25.2224C44.0909 25.7372 44.2299 26.134 44.5079 26.4146C44.7858 26.6951 45.1554 26.8356 45.6182 26.8356C46.0701 26.8356 46.4402 26.6812 46.7285 26.3719C47.0167 26.063 47.1609 25.6589 47.1609 25.1602V20.267H49.9265Z" fill="white"/>
<path d="M51.3138 28.9392V20.2669H53.9941V21.8955H54.0481C54.3652 20.7322 55.0483 20.1505 56.0973 20.1505C56.3464 20.1505 56.5806 20.1866 56.7989 20.2597V22.628C56.5595 22.524 56.2636 22.4725 55.9104 22.4725C55.318 22.4725 54.8635 22.6347 54.5469 22.9595C54.2303 23.2843 54.0713 23.7501 54.0713 24.358V28.9392H51.3138Z" fill="white"/>
<path d="M61.5282 22.0435C61.087 22.0435 60.7154 22.1918 60.4143 22.4877C60.1132 22.7837 59.9443 23.1631 59.9078 23.6253H63.1336C63.1074 23.1476 62.9478 22.7642 62.6544 22.4764C62.3605 22.1877 61.9858 22.0435 61.5282 22.0435ZM63.1959 26.2124H65.6893C65.5539 27.1003 65.1164 27.8081 64.3762 28.3357C63.636 28.8628 62.7049 29.1263 61.5827 29.1263C60.2115 29.1263 59.1367 28.7289 58.3574 27.9337C57.5781 27.1394 57.1884 26.0436 57.1884 24.6466C57.1884 23.249 57.5755 22.1388 58.3492 21.3152C59.1233 20.4921 60.1698 20.0803 61.4896 20.0803C62.7831 20.0803 63.8152 20.4736 64.5862 21.2606C65.3578 22.0476 65.7434 23.1008 65.7434 24.4201V25.2071H59.8764V25.3785C59.8764 25.9082 60.0375 26.3385 60.3597 26.6679C60.6814 26.9979 61.1025 27.1626 61.6219 27.1626C62.0064 27.1626 62.3384 27.0782 62.6189 26.9093C62.8994 26.741 63.092 26.5084 63.1959 26.2124" fill="white"/>
<path d="M8.46843 37.5038V44.1341H9.81653C10.7518 44.1341 11.4611 43.851 11.9475 43.2843C12.4329 42.7186 12.6759 41.877 12.6759 40.76C12.6759 39.711 12.4262 38.9064 11.928 38.3454C11.4292 37.7843 10.7256 37.5038 9.81653 37.5038H8.46843ZM5.60905 35.1977H10.1979C11.9017 35.1977 13.2251 35.6775 14.1676 36.6385C15.1106 37.6 15.5821 38.9713 15.5821 40.7528C15.5821 42.5446 15.1091 43.9406 14.1635 44.9402C13.2189 45.9409 11.8966 46.4402 10.1979 46.4402H5.60905V35.1977Z" fill="white"/>
<path d="M20.888 39.5447C20.4469 39.5447 20.0753 39.6929 19.7741 39.9889C19.473 40.2848 19.3042 40.6642 19.2676 41.1264H22.4935C22.4672 40.6488 22.3077 40.2653 22.0143 39.9775C21.7204 39.6888 21.3456 39.5447 20.888 39.5447ZM22.5558 43.7135H25.0492C24.9138 44.6014 24.4763 45.3092 23.7361 45.8368C22.9959 46.3639 22.0647 46.6275 20.9426 46.6275C19.5713 46.6275 18.4965 46.2301 17.7172 45.4348C16.9379 44.6406 16.5483 43.5447 16.5483 42.1477C16.5483 40.7502 16.9353 39.6399 17.709 38.8163C18.4832 37.9932 19.5296 37.5814 20.8494 37.5814C22.143 37.5814 23.175 37.9747 23.9461 38.7617C24.7177 39.5488 25.1032 40.6019 25.1032 41.9212V42.7082H19.2362V42.8796C19.2362 43.4093 19.3973 43.8396 19.7196 44.1691C20.0413 44.499 20.4623 44.6637 20.9817 44.6637C21.3662 44.6637 21.6982 44.5793 21.9788 44.4105C22.2593 44.2422 22.4518 44.0095 22.5558 43.7135" fill="white"/>
<path d="M34.3054 37.7682L31.4229 46.4406H28.2444L25.3222 37.7682H28.2902L29.8411 44.1108H29.8962L31.4229 37.7682H34.3054Z" fill="white"/>
<path d="M38.8244 39.5447C38.3833 39.5447 38.0116 39.6929 37.7105 39.9889C37.4094 40.2848 37.2406 40.6642 37.204 41.1264H40.4299C40.4036 40.6488 40.2441 40.2653 39.9507 39.9775C39.6567 39.6888 39.282 39.5447 38.8244 39.5447ZM40.4922 43.7135H42.9856C42.8502 44.6014 42.4127 45.3092 41.6725 45.8368C40.9323 46.3639 40.0011 46.6275 38.879 46.6275C37.5077 46.6275 36.4329 46.2301 35.6536 45.4348C34.8743 44.6406 34.4846 43.5447 34.4846 42.1477C34.4846 40.7502 34.8717 39.6399 35.6454 38.8163C36.4196 37.9932 37.466 37.5814 38.7858 37.5814C40.0793 37.5814 41.1114 37.9747 41.8825 38.7617C42.6541 39.5488 43.0396 40.6019 43.0396 41.9212V42.7082H37.1726V42.8796C37.1726 43.4093 37.3337 43.8396 37.656 44.1691C37.9777 44.499 38.3987 44.6637 38.9181 44.6637C39.3026 44.6637 39.6346 44.5793 39.9151 44.4105C40.1957 44.2422 40.3882 44.0095 40.4922 43.7135" fill="white"/>
<path d="M44.1921 34.6362H46.9506V46.4402H44.1921V34.6362Z" fill="white"/>
<path d="M51.3451 43.9431C51.6308 44.377 52.0282 44.5937 52.5372 44.5937C53.0463 44.5937 53.4437 44.377 53.7294 43.9431C54.0151 43.5097 54.1582 42.8956 54.1582 42.1003C54.1582 41.3267 54.0125 40.7188 53.7217 40.2776C53.4308 39.836 53.036 39.6152 52.5372 39.6152C52.0333 39.6152 51.637 39.835 51.3492 40.2735C51.0605 40.7126 50.9168 41.321 50.9168 42.1003C50.9168 42.8956 51.0594 43.5097 51.3451 43.9431ZM55.7785 45.4348C54.9941 46.2301 53.9136 46.6274 52.5372 46.6274C51.1608 46.6274 50.0804 46.2285 49.2964 45.4317C48.5115 44.6344 48.1192 43.5241 48.1192 42.1003C48.1192 40.7033 48.5171 39.6007 49.3114 38.7931C50.1066 37.9855 51.1814 37.5814 52.5372 37.5814C53.8982 37.5814 54.9745 37.9829 55.7667 38.7849C56.5589 39.5879 56.9547 40.693 56.9547 42.1003C56.9547 43.5287 56.563 44.6406 55.7785 45.4348" fill="white"/>
<path d="M61.2718 43.7681C61.573 44.1783 61.9781 44.3832 62.4871 44.3832C62.9967 44.3832 63.4018 44.1768 63.7029 43.764C64.0041 43.3506 64.1549 42.7963 64.1549 42.1003C64.1549 41.4096 64.003 40.8578 63.6988 40.4449C63.3951 40.0316 62.9911 39.8252 62.4871 39.8252C61.9837 39.8252 61.5796 40.0331 61.2759 40.4485C60.9717 40.8639 60.8199 41.4178 60.8199 42.1081C60.8199 42.8045 60.9707 43.3573 61.2718 43.7681ZM63.5079 37.6514C64.6042 37.6514 65.4572 38.0411 66.0671 38.8204C66.6776 39.5992 66.9834 40.6925 66.9834 42.1003C66.9834 43.5081 66.6802 44.603 66.0754 45.3849C65.47 46.1663 64.6248 46.5569 63.5387 46.5569C62.9108 46.5569 62.3651 46.4169 61.9034 46.1369C61.4407 45.8564 61.1004 45.4636 60.8822 44.9597H60.8276V49.0812H58.0696V37.7683H60.8122V39.2878H60.8667C61.085 38.7736 61.4252 38.3726 61.8869 38.0838C62.3497 37.7956 62.8902 37.6514 63.5079 37.6514" fill="white"/>
<path d="M68.0971 46.4403V37.768H70.7773V39.4362H70.8314C71.0033 38.8798 71.3121 38.4387 71.7584 38.1108C72.2052 37.7844 72.722 37.6202 73.3093 37.6202C73.9533 37.6202 74.486 37.7803 74.9066 38.0995C75.3276 38.4191 75.5999 38.8721 75.7245 39.4589H75.779C75.951 38.8983 76.2794 38.451 76.7648 38.119C77.2502 37.7865 77.8153 37.6202 78.4593 37.6202C79.306 37.6202 79.9917 37.892 80.5162 38.4345C81.0407 38.9776 81.3032 39.6879 81.3032 40.5656V46.4403H78.5452V41.2666C78.5452 40.8044 78.4402 40.4554 78.2297 40.2186C78.0192 39.9824 77.7088 39.8645 77.2985 39.8645C76.9089 39.8645 76.5985 39.9942 76.3674 40.2536C76.1363 40.5136 76.021 40.8615 76.021 41.298V46.4403H73.387V41.2275C73.387 40.791 73.279 40.4554 73.0638 40.2186C72.8481 39.9824 72.5408 39.8645 72.1403 39.8645C71.7558 39.8645 71.446 39.9968 71.2097 40.2614C70.9729 40.527 70.8545 40.877 70.8545 41.3135V46.4403H68.0971Z" fill="white"/>
<path d="M86.7182 39.5447C86.2771 39.5447 85.9055 39.6929 85.6043 39.9889C85.3032 40.2848 85.1344 40.6642 85.0978 41.1264H88.3237C88.2975 40.6488 88.1379 40.2653 87.8445 39.9775C87.5506 39.6888 87.1758 39.5447 86.7182 39.5447ZM88.386 43.7135H90.8794C90.744 44.6014 90.3065 45.3092 89.5663 45.8368C88.8261 46.3639 87.8949 46.6275 86.7728 46.6275C85.4015 46.6275 84.3268 46.2301 83.5475 45.4348C82.7681 44.6406 82.3785 43.5447 82.3785 42.1477C82.3785 40.7502 82.7656 39.6399 83.5392 38.8163C84.3134 37.9932 85.3598 37.5814 86.6796 37.5814C87.9732 37.5814 89.0052 37.9747 89.7763 38.7617C90.5479 39.5488 90.9334 40.6019 90.9334 41.9212V42.7082H85.0664V42.8796C85.0664 43.4093 85.2276 43.8396 85.5498 44.1691C85.8715 44.499 86.2926 44.6637 86.8119 44.6637C87.1964 44.6637 87.5284 44.5793 87.809 44.4105C88.0895 44.2422 88.282 44.0095 88.386 43.7135" fill="white"/>
<path d="M92.0406 46.4403V37.768H94.7208V39.3966H94.7749C95.0091 38.8201 95.3622 38.38 95.8347 38.0763C96.3073 37.7721 96.8766 37.6202 97.5411 37.6202C98.5073 37.6202 99.2639 37.909 99.8126 38.485C100.36 39.062 100.634 39.8619 100.634 40.8847V46.4403H97.8685V41.4767C97.8685 40.9732 97.7367 40.58 97.4752 40.2964C97.2127 40.0138 96.8452 39.8722 96.3726 39.8722C95.9052 39.8722 95.5259 40.0282 95.2345 40.3396C94.9442 40.6515 94.798 41.0535 94.798 41.5472V46.4403H92.0406Z" fill="white"/>
<path d="M102.676 35.852H105.434V37.7684H107V39.8098H105.434V43.5108C105.434 44.1187 105.769 44.4224 106.44 44.4224C106.632 44.4224 106.818 44.4095 107 44.3833V46.347C106.683 46.4196 106.278 46.4561 105.785 46.4561C104.673 46.4561 103.877 46.2703 103.396 45.8992C102.916 45.5275 102.676 44.9155 102.676 44.0636V39.8098H101.515V37.7684H102.676V35.852Z" fill="white"/>
<path d="M2.05148 51.6896H0.507263V17.7194H2.05148V51.6896Z" fill="white"/>
<path d="M68.1002 52.2043H0.763611V50.7615H68.1002V52.2043Z" fill="white"/>
</svg>
