<svg width="120" height="66" viewBox="0 0 120 66" fill="none" xmlns="http://www.w3.org/2000/svg">
<g clip-path="url(#clip0_1_2)">
<path d="M28.9562 6.68526C28.9562 8.22279 28.5038 9.43191 27.5999 10.3121C26.696 11.1928 25.4473 11.6329 23.8526 11.6329C22.1123 11.6329 20.7518 11.1197 19.7697 10.0939C18.7881 9.0685 18.2976 7.63599 18.2976 5.79682C18.2976 3.97876 18.7855 2.55809 19.7625 1.5353C20.7385 0.511997 22.0788 0.000346604 23.7826 0.000346604C25.1379 0.000346604 26.2837 0.363753 27.2185 1.09108C28.1533 1.81841 28.6937 2.75574 28.8389 3.90413H26.0104C25.8709 3.40535 25.6027 3.0126 25.2084 2.72743C24.8136 2.44175 24.3406 2.29866 23.7903 2.29866C22.9801 2.29866 22.3475 2.60235 21.893 3.21026C21.4385 3.81817 21.211 4.66697 21.211 5.7577C21.211 6.86491 21.4555 7.73739 21.944 8.37567C22.4319 9.01497 23.0893 9.33411 23.9149 9.33411C24.5588 9.33411 25.0885 9.16064 25.5044 8.81216C25.9203 8.4642 26.1483 8.00711 26.19 7.4409L26.1978 7.27001H24.1409V5.30628H28.9562V6.68526Z" fill="white"/>
<path d="M34.2852 4.54244C33.844 4.54244 33.4724 4.69069 33.1713 4.98666C32.8702 5.28263 32.7013 5.662 32.6648 6.12423H35.8906C35.8644 5.64655 35.7048 5.26307 35.4114 4.97534C35.1175 4.68657 34.7428 4.54244 34.2852 4.54244ZM35.9529 8.71131H38.4463C38.311 9.59923 37.8734 10.307 37.1332 10.8346C36.393 11.3617 35.4619 11.6252 34.3397 11.6252C32.9685 11.6252 31.8937 11.2279 31.1144 10.4326C30.3351 9.63835 29.9454 8.54247 29.9454 7.14547C29.9454 5.74796 30.3325 4.63767 31.1062 3.81409C31.8803 2.99102 32.9268 2.57923 34.2466 2.57923C35.5401 2.57923 36.5722 2.97249 37.3432 3.75952C38.1148 4.54656 38.5004 5.59971 38.5004 6.91899V7.70602H32.6334V7.87743C32.6334 8.4071 32.7945 8.83742 33.1167 9.16685C33.4384 9.4968 33.8595 9.66152 34.3789 9.66152C34.7634 9.66152 35.0954 9.5771 35.3759 9.40826C35.6564 9.23995 35.849 9.00728 35.9529 8.71131" fill="white"/>
<path d="M42.5601 8.94079C42.8458 9.37472 43.2432 9.59142 43.7523 9.59142C44.2613 9.59142 44.6587 9.37472 44.9444 8.94079C45.2301 8.50738 45.3732 7.8933 45.3732 7.09803C45.3732 6.32437 45.2275 5.71647 44.9367 5.27534C44.6459 4.83369 44.251 4.61287 43.7523 4.61287C43.2483 4.61287 42.852 4.83266 42.5642 5.27122C42.2755 5.71029 42.1319 6.31871 42.1319 7.09803C42.1319 7.8933 42.2744 8.50738 42.5601 8.94079ZM46.9936 10.4325C46.2091 11.2278 45.1287 11.6252 43.7523 11.6252C42.3759 11.6252 41.2954 11.2262 40.5115 10.4294C39.7265 9.63208 39.3343 8.52179 39.3343 7.09803C39.3343 5.70103 39.7322 4.59846 40.5264 3.79083C41.3217 2.98321 42.3964 2.57914 43.7523 2.57914C45.1132 2.57914 46.1896 2.98063 46.9817 3.78259C47.7739 4.58559 48.1698 5.69073 48.1698 7.09803C48.1698 8.52643 47.778 9.63826 46.9936 10.4325" fill="white"/>
<path d="M49.2845 11.4381V2.76576H51.9647V4.43403H52.0187C52.1907 3.8776 52.4995 3.43647 52.9458 3.10858C53.3926 2.78223 53.9094 2.61803 54.4967 2.61803C55.1406 2.61803 55.6734 2.77812 56.0939 3.09725C56.515 3.41691 56.7873 3.86988 56.9119 4.45668H56.9664C57.1383 3.89613 57.4667 3.44882 57.9521 3.11681C58.4375 2.78429 59.0027 2.61803 59.6467 2.61803C60.4934 2.61803 61.179 2.88981 61.7036 3.43235C62.2281 3.9754 62.4906 4.68574 62.4906 5.56337V11.4381H59.7326V6.26444C59.7326 5.80221 59.6276 5.45321 59.4171 5.21643C59.2066 4.98017 58.8962 4.86229 58.4859 4.86229C58.0963 4.86229 57.7859 4.99201 57.5548 5.25143C57.3236 5.51138 57.2083 5.85934 57.2083 6.29584V11.4381H54.5744V6.22532C54.5744 5.78882 54.4663 5.45321 54.2512 5.21643C54.0355 4.98017 53.7282 4.86229 53.3277 4.86229C52.9432 4.86229 52.6333 4.99458 52.3971 5.25916C52.1603 5.52476 52.0419 5.87478 52.0419 6.31128V11.4381H49.2845Z" fill="white"/>
<path d="M67.9055 4.54244C67.4644 4.54244 67.0928 4.69069 66.7916 4.98666C66.4905 5.28263 66.3217 5.662 66.2851 6.12423H69.511C69.4847 5.64655 69.3252 5.26307 69.0318 4.97534C68.7379 4.68657 68.3631 4.54244 67.9055 4.54244ZM69.5733 8.71131H72.0667C71.9313 9.59923 71.4938 10.307 70.7536 10.8346C70.0134 11.3617 69.0822 11.6252 67.9601 11.6252C66.5888 11.6252 65.5141 11.2279 64.7347 10.4326C63.9554 9.63835 63.5658 8.54247 63.5658 7.14547C63.5658 5.74796 63.9528 4.63767 64.7265 3.81409C65.5007 2.99102 66.5471 2.57923 67.8669 2.57923C69.1605 2.57923 70.1925 2.97249 70.9636 3.75952C71.7352 4.54656 72.1207 5.59971 72.1207 6.91899V7.70602H66.2537V7.87743C66.2537 8.4071 66.4148 8.83742 66.7371 9.16685C67.0588 9.4968 67.4798 9.66152 67.9992 9.66152C68.3837 9.66152 68.7157 9.5771 68.9963 9.40826C69.2768 9.23995 69.4693 9.00728 69.5733 8.71131" fill="white"/>
<path d="M73.9204 0.849735H76.6784V2.7661H78.2448V4.80756H76.6784V8.50853C76.6784 9.11643 77.0135 9.42013 77.6842 9.42013C77.8762 9.42013 78.0631 9.40726 78.2448 9.38101V11.3447C77.9277 11.4173 77.5226 11.4539 77.0295 11.4539C75.9176 11.4539 75.1213 11.268 74.6411 10.8969C74.1608 10.5253 73.9204 9.91325 73.9204 9.06135V4.80756H72.7597V2.7661H73.9204V0.849735Z" fill="white"/>
<path d="M79.4373 11.4381V2.76575H82.1176V4.39439H82.1716C82.4887 3.23108 83.1717 2.64942 84.2208 2.64942C84.4699 2.64942 84.7041 2.68546 84.9224 2.75855V5.12686C84.683 5.02289 84.387 4.97141 84.0339 4.97141C83.4415 4.97141 82.987 5.13355 82.6704 5.45836C82.3538 5.78316 82.1948 6.24899 82.1948 6.8569V11.4381H79.4373Z" fill="white"/>
<path d="M87.0804 14.6089C86.4622 14.6089 86.1271 14.6038 86.0757 14.594V12.5057C86.1014 12.5109 86.2625 12.5134 86.558 12.5134C87.4727 12.5134 87.9766 12.2592 88.0703 11.7496L88.1089 11.5087L85.1481 2.76582H88.1949L89.7921 9.34985H89.8467L91.4439 2.76582H94.3578L91.5685 11.4227C91.1994 12.5757 90.6713 13.3952 89.9831 13.8806C89.2943 14.366 88.3271 14.6089 87.0804 14.6089Z" fill="white"/>
<path d="M25.1691 28.9392H21.5701L17.9859 17.6963H21.2345L23.4005 26.1421H23.4633L25.6216 17.6963H28.7533L25.1691 28.9392Z" fill="white"/>
<path d="M32.8982 22.0435C32.4571 22.0435 32.0855 22.1918 31.7843 22.4877C31.4832 22.7837 31.3144 23.1631 31.2778 23.6253H34.5037C34.4774 23.1476 34.3179 22.7642 34.0245 22.4764C33.7306 22.1877 33.3558 22.0435 32.8982 22.0435ZM34.566 26.2124H37.0594C36.924 27.1003 36.4865 27.8081 35.7463 28.3357C35.0061 28.8628 34.0749 29.1263 32.9528 29.1263C31.5815 29.1263 30.5068 28.7289 29.7274 27.9337C28.9481 27.1394 28.5585 26.0436 28.5585 24.6466C28.5585 23.249 28.9456 22.1388 29.7192 21.3152C30.4934 20.4921 31.5398 20.0803 32.8596 20.0803C34.1532 20.0803 35.1852 20.4736 35.9563 21.2606C36.7279 22.0476 37.1134 23.1008 37.1134 24.4201V25.2071H31.2464V25.3785C31.2464 25.9082 31.4075 26.3385 31.7298 26.6679C32.0515 26.9979 32.4725 27.1626 32.9919 27.1626C33.3764 27.1626 33.7084 27.0782 33.989 26.9093C34.2695 26.741 34.462 26.5084 34.566 26.2124" fill="white"/>
<path d="M38.2201 28.9392V20.2669H40.9003V21.8955H40.9544C41.1886 21.319 41.5417 20.8789 42.0142 20.5752C42.4867 20.271 43.056 20.1191 43.7206 20.1191C44.6867 20.1191 45.4434 20.4079 45.9921 20.9839C46.5398 21.5609 46.8136 22.3608 46.8136 23.3836V28.9392H44.0479V23.9756C44.0479 23.4722 43.9162 23.0789 43.6547 22.7953C43.3922 22.5127 43.0246 22.3711 42.5521 22.3711C42.0847 22.3711 41.7054 22.5271 41.414 22.8385C41.1237 23.1504 40.9775 23.5525 40.9775 24.0461V28.9392H38.2201Z" fill="white"/>
<path d="M48.8551 18.3509H51.6131V20.2672H53.1795V22.3087H51.6131V26.0097C51.6131 26.6176 51.9482 26.9213 52.6189 26.9213C52.8109 26.9213 52.9978 26.9084 53.1795 26.8821V28.8459C52.8624 28.9184 52.4573 28.955 51.9642 28.955C50.8523 28.955 50.056 28.7692 49.5758 28.398C49.0955 28.0264 48.8551 27.4144 48.8551 26.5625V22.3087H47.6944V20.2672H48.8551V18.3509Z" fill="white"/>
<path d="M62.9265 20.267V28.9394H60.2386V27.303H60.184C59.9869 27.8692 59.6559 28.3078 59.1906 28.6197C58.7258 28.9311 58.1688 29.0871 57.5197 29.0871C56.5685 29.0871 55.8 28.7963 55.2137 28.2141C54.6264 27.633 54.333 26.8382 54.333 25.8309V20.267H57.0909V25.2224C57.0909 25.7372 57.2299 26.134 57.5079 26.4146C57.7858 26.6951 58.1554 26.8356 58.6182 26.8356C59.0701 26.8356 59.4402 26.6812 59.7285 26.3719C60.0167 26.063 60.1609 25.6589 60.1609 25.1602V20.267H62.9265Z" fill="white"/>
<path d="M64.3138 28.9392V20.2669H66.9941V21.8955H67.0481C67.3652 20.7322 68.0483 20.1505 69.0973 20.1505C69.3464 20.1505 69.5806 20.1866 69.7989 20.2597V22.628C69.5595 22.524 69.2636 22.4725 68.9104 22.4725C68.318 22.4725 67.8635 22.6347 67.5469 22.9595C67.2303 23.2843 67.0713 23.7501 67.0713 24.358V28.9392H64.3138Z" fill="white"/>
<path d="M74.5282 22.0435C74.087 22.0435 73.7154 22.1918 73.4143 22.4877C73.1132 22.7837 72.9443 23.1631 72.9078 23.6253H76.1336C76.1074 23.1476 75.9478 22.7642 75.6544 22.4764C75.3605 22.1877 74.9858 22.0435 74.5282 22.0435ZM76.1959 26.2124H78.6893C78.5539 27.1003 78.1164 27.8081 77.3762 28.3357C76.636 28.8628 75.7049 29.1263 74.5827 29.1263C73.2115 29.1263 72.1367 28.7289 71.3574 27.9337C70.5781 27.1394 70.1884 26.0436 70.1884 24.6466C70.1884 23.249 70.5755 22.1388 71.3492 21.3152C72.1233 20.4921 73.1698 20.0803 74.4896 20.0803C75.7831 20.0803 76.8152 20.4736 77.5862 21.2606C78.3578 22.0476 78.7434 23.1008 78.7434 24.4201V25.2071H72.8764V25.3785C72.8764 25.9082 73.0375 26.3385 73.3597 26.6679C73.6814 26.9979 74.1025 27.1626 74.6219 27.1626C75.0064 27.1626 75.3384 27.0782 75.6189 26.9093C75.8994 26.741 76.092 26.5084 76.1959 26.2124" fill="white"/>
<path d="M21.4684 37.5038V44.1341H22.8165C23.7518 44.1341 24.4611 43.851 24.9475 43.2843C25.4329 42.7186 25.6759 41.877 25.6759 40.76C25.6759 39.711 25.4262 38.9064 24.928 38.3454C24.4292 37.7843 23.7256 37.5038 22.8165 37.5038H21.4684ZM18.6091 35.1977H23.1979C24.9017 35.1977 26.2251 35.6775 27.1676 36.6385C28.1106 37.6 28.5821 38.9713 28.5821 40.7528C28.5821 42.5446 28.1091 43.9406 27.1635 44.9402C26.2189 45.9409 24.8966 46.4402 23.1979 46.4402H18.6091V35.1977Z" fill="white"/>
<path d="M33.888 39.5447C33.4469 39.5447 33.0753 39.6929 32.7741 39.9889C32.473 40.2848 32.3042 40.6642 32.2676 41.1264H35.4935C35.4672 40.6488 35.3077 40.2653 35.0143 39.9775C34.7204 39.6888 34.3456 39.5447 33.888 39.5447ZM35.5558 43.7135H38.0492C37.9138 44.6014 37.4763 45.3092 36.7361 45.8368C35.9959 46.3639 35.0647 46.6275 33.9426 46.6275C32.5713 46.6275 31.4965 46.2301 30.7172 45.4348C29.9379 44.6406 29.5483 43.5447 29.5483 42.1477C29.5483 40.7502 29.9353 39.6399 30.709 38.8163C31.4832 37.9932 32.5296 37.5814 33.8494 37.5814C35.143 37.5814 36.175 37.9747 36.9461 38.7617C37.7177 39.5488 38.1032 40.6019 38.1032 41.9212V42.7082H32.2362V42.8796C32.2362 43.4093 32.3973 43.8396 32.7196 44.1691C33.0413 44.499 33.4623 44.6637 33.9817 44.6637C34.3662 44.6637 34.6982 44.5793 34.9788 44.4105C35.2593 44.2422 35.4518 44.0095 35.5558 43.7135" fill="white"/>
<path d="M47.3054 37.7682L44.4229 46.4406H41.2444L38.3222 37.7682H41.2902L42.8411 44.1108H42.8962L44.4229 37.7682H47.3054Z" fill="white"/>
<path d="M51.8244 39.5447C51.3833 39.5447 51.0116 39.6929 50.7105 39.9889C50.4094 40.2848 50.2406 40.6642 50.204 41.1264H53.4299C53.4036 40.6488 53.2441 40.2653 52.9507 39.9775C52.6567 39.6888 52.282 39.5447 51.8244 39.5447ZM53.4922 43.7135H55.9856C55.8502 44.6014 55.4127 45.3092 54.6725 45.8368C53.9323 46.3639 53.0011 46.6275 51.879 46.6275C50.5077 46.6275 49.4329 46.2301 48.6536 45.4348C47.8743 44.6406 47.4846 43.5447 47.4846 42.1477C47.4846 40.7502 47.8717 39.6399 48.6454 38.8163C49.4196 37.9932 50.466 37.5814 51.7858 37.5814C53.0793 37.5814 54.1114 37.9747 54.8825 38.7617C55.6541 39.5488 56.0396 40.6019 56.0396 41.9212V42.7082H50.1726V42.8796C50.1726 43.4093 50.3337 43.8396 50.656 44.1691C50.9777 44.499 51.3987 44.6637 51.9181 44.6637C52.3026 44.6637 52.6346 44.5793 52.9151 44.4105C53.1957 44.2422 53.3882 44.0095 53.4922 43.7135" fill="white"/>
<path d="M57.1921 34.6362H59.9506V46.4402H57.1921V34.6362Z" fill="white"/>
<path d="M64.3451 43.9431C64.6308 44.377 65.0282 44.5937 65.5372 44.5937C66.0463 44.5937 66.4437 44.377 66.7294 43.9431C67.0151 43.5097 67.1582 42.8956 67.1582 42.1003C67.1582 41.3267 67.0125 40.7188 66.7217 40.2776C66.4308 39.836 66.036 39.6152 65.5372 39.6152C65.0333 39.6152 64.637 39.835 64.3492 40.2735C64.0605 40.7126 63.9168 41.321 63.9168 42.1003C63.9168 42.8956 64.0594 43.5097 64.3451 43.9431ZM68.7785 45.4348C67.9941 46.2301 66.9136 46.6274 65.5372 46.6274C64.1608 46.6274 63.0804 46.2285 62.2964 45.4317C61.5115 44.6344 61.1192 43.5241 61.1192 42.1003C61.1192 40.7033 61.5171 39.6007 62.3114 38.7931C63.1066 37.9855 64.1814 37.5814 65.5372 37.5814C66.8982 37.5814 67.9745 37.9829 68.7667 38.7849C69.5589 39.5879 69.9547 40.693 69.9547 42.1003C69.9547 43.5287 69.563 44.6406 68.7785 45.4348" fill="white"/>
<path d="M74.2718 43.7681C74.573 44.1783 74.9781 44.3832 75.4871 44.3832C75.9967 44.3832 76.4018 44.1768 76.7029 43.764C77.0041 43.3506 77.1549 42.7963 77.1549 42.1003C77.1549 41.4096 77.003 40.8578 76.6988 40.4449C76.3951 40.0316 75.9911 39.8252 75.4871 39.8252C74.9837 39.8252 74.5796 40.0331 74.2759 40.4485C73.9717 40.8639 73.8199 41.4178 73.8199 42.1081C73.8199 42.8045 73.9707 43.3573 74.2718 43.7681ZM76.5079 37.6514C77.6042 37.6514 78.4572 38.0411 79.0671 38.8204C79.6776 39.5992 79.9834 40.6925 79.9834 42.1003C79.9834 43.5081 79.6802 44.603 79.0754 45.3849C78.47 46.1663 77.6248 46.5569 76.5387 46.5569C75.9108 46.5569 75.3651 46.4169 74.9034 46.1369C74.4407 45.8564 74.1004 45.4636 73.8822 44.9597H73.8276V49.0812H71.0696V37.7683H73.8122V39.2878H73.8667C74.085 38.7736 74.4252 38.3726 74.8869 38.0838C75.3497 37.7956 75.8902 37.6514 76.5079 37.6514" fill="white"/>
<path d="M81.0971 46.4403V37.768H83.7773V39.4362H83.8314C84.0033 38.8798 84.3121 38.4387 84.7584 38.1108C85.2052 37.7844 85.722 37.6202 86.3093 37.6202C86.9533 37.6202 87.486 37.7803 87.9066 38.0995C88.3276 38.4191 88.5999 38.8721 88.7245 39.4589H88.779C88.951 38.8983 89.2794 38.451 89.7648 38.119C90.2502 37.7865 90.8153 37.6202 91.4593 37.6202C92.306 37.6202 92.9917 37.892 93.5162 38.4345C94.0407 38.9776 94.3032 39.6879 94.3032 40.5656V46.4403H91.5452V41.2666C91.5452 40.8044 91.4402 40.4554 91.2297 40.2186C91.0192 39.9824 90.7088 39.8645 90.2985 39.8645C89.9089 39.8645 89.5985 39.9942 89.3674 40.2536C89.1363 40.5136 89.021 40.8615 89.021 41.298V46.4403H86.387V41.2275C86.387 40.791 86.279 40.4554 86.0638 40.2186C85.8481 39.9824 85.5408 39.8645 85.1403 39.8645C84.7558 39.8645 84.446 39.9968 84.2097 40.2614C83.9729 40.527 83.8545 40.877 83.8545 41.3135V46.4403H81.0971Z" fill="white"/>
<path d="M99.7182 39.5447C99.2771 39.5447 98.9055 39.6929 98.6043 39.9889C98.3032 40.2848 98.1344 40.6642 98.0978 41.1264H101.324C101.297 40.6488 101.138 40.2653 100.844 39.9775C100.551 39.6888 100.176 39.5447 99.7182 39.5447ZM101.386 43.7135H103.879C103.744 44.6014 103.306 45.3092 102.566 45.8368C101.826 46.3639 100.895 46.6275 99.7728 46.6275C98.4015 46.6275 97.3268 46.2301 96.5475 45.4348C95.7681 44.6406 95.3785 43.5447 95.3785 42.1477C95.3785 40.7502 95.7656 39.6399 96.5392 38.8163C97.3134 37.9932 98.3598 37.5814 99.6796 37.5814C100.973 37.5814 102.005 37.9747 102.776 38.7617C103.548 39.5488 103.933 40.6019 103.933 41.9212V42.7082H98.0664V42.8796C98.0664 43.4093 98.2276 43.8396 98.5498 44.1691C98.8715 44.499 99.2926 44.6637 99.8119 44.6637C100.196 44.6637 100.528 44.5793 100.809 44.4105C101.09 44.2422 101.282 44.0095 101.386 43.7135" fill="white"/>
<path d="M105.041 46.4403V37.768H107.721V39.3966H107.775C108.009 38.8201 108.362 38.38 108.835 38.0763C109.307 37.7721 109.877 37.6202 110.541 37.6202C111.507 37.6202 112.264 37.909 112.813 38.485C113.36 39.062 113.634 39.8619 113.634 40.8847V46.4403H110.868V41.4767C110.868 40.9732 110.737 40.58 110.475 40.2964C110.213 40.0138 109.845 39.8722 109.373 39.8722C108.905 39.8722 108.526 40.0282 108.235 40.3396C107.944 40.6515 107.798 41.0535 107.798 41.5472V46.4403H105.041Z" fill="white"/>
<path d="M115.676 35.852H118.434V37.7684H120V39.8098H118.434V43.5108C118.434 44.1187 118.769 44.4224 119.44 44.4224C119.632 44.4224 119.818 44.4095 120 44.3833V46.347C119.683 46.4196 119.278 46.4561 118.785 46.4561C117.673 46.4561 116.877 46.2703 116.396 45.8992C115.916 45.5275 115.676 44.9155 115.676 44.0636V39.8098H114.515V37.7684H115.676V35.852Z" fill="white"/>
<path d="M15.0515 51.6896H13.5073V17.7194H15.0515V51.6896Z" fill="white"/>
<path d="M81.1002 52.2043H13.7636V50.7615H81.1002V52.2043Z" fill="white"/>
<path d="M0.000213623 64.5152L14.031 50.4844L15.0512 51.5046L1.02043 65.5354L0.000213623 64.5152Z" fill="white"/>
</g>
<defs>
<clipPath id="clip0_1_2">
<rect width="120" height="65.5355" fill="white"/>
</clipPath>
</defs>
</svg>
