<?xml version="1.0" encoding="UTF-8" standalone="no"?>
<svg
   xmlns:dc="http://purl.org/dc/elements/1.1/"
   xmlns:cc="http://creativecommons.org/ns#"
   xmlns:rdf="http://www.w3.org/1999/02/22-rdf-syntax-ns#"
   xmlns:svg="http://www.w3.org/2000/svg"
   xmlns="http://www.w3.org/2000/svg"
   viewBox="0 0 310.83734 169.75732"
   height="169.75732"
   width="310.83734"
   xml:space="preserve"
   id="svg2"
   version="1.1"><metadata
     id="metadata8"><rdf:RDF><cc:Work
         rdf:about=""><dc:format>image/svg+xml</dc:format><dc:type
           rdf:resource="http://purl.org/dc/dcmitype/StillImage" /></cc:Work></rdf:RDF></metadata><defs
     id="defs6"><clipPath
       id="clipPath18"
       clipPathUnits="userSpaceOnUse"><path
         id="path16"
         d="M 0,127.318 H 233.128 V 0 H 0 Z" /></clipPath></defs><g
     transform="matrix(1.3333333,0,0,-1.3333333,0,169.75733)"
     id="g10"><g
       id="g12"><g
         clip-path="url(#clipPath18)"
         id="g14"><g
           transform="translate(56.2543,114.3303)"
           id="g20"><path
             id="path22"
             style="fill:#414142;fill-opacity:1;fill-rule:nonzero;stroke:none"
             d="m 0,0 c 0,-2.987 -0.879,-5.336 -2.635,-7.046 -1.756,-1.711 -4.182,-2.566 -7.28,-2.566 -3.381,0 -6.024,0.997 -7.932,2.99 -1.907,1.992 -2.86,4.775 -2.86,8.348 0,3.532 0.948,6.292 2.846,8.279 1.896,1.988 4.5,2.982 7.81,2.982 2.633,0 4.859,-0.706 6.675,-2.119 1.816,-1.413 2.866,-3.234 3.148,-5.465 h -5.495 c -0.271,0.969 -0.792,1.732 -1.558,2.286 -0.767,0.555 -1.686,0.833 -2.755,0.833 -1.574,0 -2.803,-0.59 -3.686,-1.771 -0.883,-1.181 -1.325,-2.83 -1.325,-4.949 0,-2.151 0.475,-3.846 1.424,-5.086 0.948,-1.242 2.225,-1.862 3.829,-1.862 1.251,0 2.28,0.337 3.088,1.014 0.808,0.676 1.251,1.564 1.332,2.664 l 0.015,0.332 h -3.996 v 3.815 l 9.355,0 z" /></g><g
           transform="translate(66.6069,118.4933)"
           id="g24"><path
             id="path26"
             style="fill:#414142;fill-opacity:1;fill-rule:nonzero;stroke:none"
             d="m 0,0 c -0.857,0 -1.579,-0.288 -2.164,-0.863 -0.585,-0.575 -0.913,-1.312 -0.984,-2.21 H 3.119 C 3.068,-2.145 2.758,-1.4 2.188,-0.841 1.617,-0.28 0.889,0 0,0 m 3.24,-8.099 h 4.844 c -0.263,-1.725 -1.113,-3.1 -2.551,-4.125 -1.438,-1.024 -3.247,-1.536 -5.427,-1.536 -2.664,0 -4.752,0.772 -6.266,2.317 -1.514,1.543 -2.271,3.672 -2.271,6.386 0,2.715 0.752,4.872 2.255,6.472 1.504,1.599 3.537,2.399 6.101,2.399 2.513,0 4.518,-0.764 6.016,-2.293 1.499,-1.529 2.248,-3.575 2.248,-6.138 V -6.146 H -3.209 v -0.333 c 0,-1.029 0.313,-1.865 0.939,-2.505 0.625,-0.641 1.443,-0.961 2.452,-0.961 0.747,0 1.392,0.164 1.937,0.492 0.545,0.327 0.919,0.779 1.121,1.354" /></g><g
           transform="translate(82.683,109.9484)"
           id="g28"><path
             id="path30"
             style="fill:#414142;fill-opacity:1;fill-rule:nonzero;stroke:none"
             d="m 0,0 c 0.555,-0.843 1.327,-1.264 2.316,-1.264 0.989,0 1.761,0.421 2.316,1.264 0.555,0.842 0.833,2.035 0.833,3.58 0,1.503 -0.283,2.684 -0.848,3.541 C 4.052,7.979 3.285,8.408 2.316,8.408 1.337,8.408 0.567,7.981 0.008,7.129 -0.553,6.276 -0.832,5.094 -0.832,3.58 -0.832,2.035 -0.555,0.842 0,0 M 8.613,-2.898 C 7.089,-4.443 4.99,-5.215 2.316,-5.215 c -2.674,0 -4.773,0.775 -6.296,2.323 -1.525,1.549 -2.287,3.706 -2.287,6.472 0,2.714 0.773,4.856 2.316,6.425 1.545,1.569 3.633,2.354 6.267,2.354 2.644,0 4.735,-0.78 6.274,-2.338 1.539,-1.56 2.308,-3.707 2.308,-6.441 0,-2.775 -0.761,-4.935 -2.285,-6.478" /></g><g
           transform="translate(95.7465,105.0969)"
           id="g32"><path
             id="path34"
             style="fill:#414142;fill-opacity:1;fill-rule:nonzero;stroke:none"
             d="m 0,0 v 16.848 h 5.207 v -3.241 h 0.105 c 0.334,1.081 0.934,1.938 1.801,2.575 0.868,0.634 1.872,0.953 3.013,0.953 1.251,0 2.286,-0.311 3.103,-0.931 0.818,-0.621 1.347,-1.501 1.589,-2.641 h 0.106 c 0.334,1.089 0.972,1.958 1.915,2.603 0.943,0.646 2.041,0.969 3.292,0.969 1.645,0 2.977,-0.528 3.996,-1.582 1.019,-1.055 1.529,-2.435 1.529,-4.14 V 0 h -5.358 v 10.051 c 0,0.898 -0.204,1.576 -0.613,2.036 -0.409,0.459 -1.012,0.688 -1.809,0.688 -0.757,0 -1.36,-0.252 -1.809,-0.756 C 15.618,11.514 15.394,10.838 15.394,9.99 V 0 h -5.117 v 10.127 c 0,0.848 -0.21,1.5 -0.628,1.96 -0.419,0.459 -1.016,0.688 -1.794,0.688 -0.747,0 -1.349,-0.257 -1.808,-0.771 C 5.587,11.488 5.357,10.808 5.357,9.96 V 0 Z" /></g><g
           transform="translate(131.9223,118.4933)"
           id="g36"><path
             id="path38"
             style="fill:#414142;fill-opacity:1;fill-rule:nonzero;stroke:none"
             d="m 0,0 c -0.857,0 -1.579,-0.288 -2.164,-0.863 -0.585,-0.575 -0.913,-1.312 -0.984,-2.21 H 3.119 C 3.068,-2.145 2.758,-1.4 2.188,-0.841 1.617,-0.28 0.889,0 0,0 m 3.24,-8.099 h 4.844 c -0.263,-1.725 -1.113,-3.1 -2.551,-4.125 -1.438,-1.024 -3.247,-1.536 -5.427,-1.536 -2.664,0 -4.752,0.772 -6.266,2.317 -1.514,1.543 -2.271,3.672 -2.271,6.386 0,2.715 0.752,4.872 2.255,6.472 1.504,1.599 3.537,2.399 6.101,2.399 2.513,0 4.518,-0.764 6.016,-2.293 1.499,-1.529 2.248,-3.575 2.248,-6.138 V -6.146 H -3.209 v -0.333 c 0,-1.029 0.313,-1.865 0.939,-2.505 0.625,-0.641 1.443,-0.961 2.452,-0.961 0.747,0 1.392,0.164 1.937,0.492 0.545,0.327 0.919,0.779 1.121,1.354" /></g><g
           transform="translate(143.6078,125.6672)"
           id="g40"><path
             id="path42"
             style="fill:#414142;fill-opacity:1;fill-rule:nonzero;stroke:none"
             d="M 0,0 H 5.358 V -3.723 H 8.401 V -7.689 H 5.358 v -7.19 c 0,-1.181 0.651,-1.771 1.954,-1.771 0.373,0 0.736,0.025 1.089,0.076 v -3.815 c -0.616,-0.141 -1.403,-0.212 -2.361,-0.212 -2.16,0 -3.707,0.361 -4.64,1.082 -0.933,0.722 -1.4,1.911 -1.4,3.566 v 8.264 h -2.255 v 3.966 H 0 Z" /></g><g
           transform="translate(154.3256,105.0969)"
           id="g44"><path
             id="path46"
             style="fill:#414142;fill-opacity:1;fill-rule:nonzero;stroke:none"
             d="m 0,0 v 16.848 h 5.207 v -3.164 h 0.105 c 0.616,2.26 1.943,3.39 3.981,3.39 0.484,0 0.939,-0.07 1.363,-0.212 v -4.601 c -0.465,0.202 -1.04,0.302 -1.726,0.302 -1.151,0 -2.034,-0.315 -2.649,-0.946 C 5.666,10.986 5.357,10.081 5.357,8.9 V 0 Z" /></g><g
           transform="translate(169.1742,98.9367)"
           id="g48"><path
             id="path50"
             style="fill:#414142;fill-opacity:1;fill-rule:nonzero;stroke:none"
             d="m 0,0 c -1.201,0 -1.852,0.01 -1.952,0.029 v 4.057 c 0.05,-0.01 0.363,-0.015 0.937,-0.015 1.777,0 2.756,0.494 2.938,1.484 L 1.998,6.023 -3.754,23.008 H 2.165 L 5.268,10.217 h 0.106 l 3.103,12.791 h 5.661 L 8.719,6.19 C 8.002,3.95 6.976,2.358 5.639,1.415 4.301,0.472 2.422,0 0,0" /></g><g
           transform="translate(48.8969,71.0969)"
           id="g52"><path
             id="path54"
             style="fill:#414142;fill-opacity:1;fill-rule:nonzero;stroke:none"
             d="m 0,0 h -6.992 l -6.963,21.842 h 6.311 L -3.436,5.434 h 0.122 l 4.193,16.408 h 6.084 z" /></g><g
           transform="translate(63.9125,84.4933)"
           id="g56"><path
             id="path58"
             style="fill:#414142;fill-opacity:1;fill-rule:nonzero;stroke:none"
             d="m 0,0 c -0.857,0 -1.579,-0.288 -2.164,-0.863 -0.585,-0.575 -0.913,-1.312 -0.984,-2.21 H 3.119 C 3.068,-2.145 2.758,-1.4 2.188,-0.841 1.617,-0.28 0.889,0 0,0 m 3.24,-8.099 h 4.844 c -0.263,-1.725 -1.113,-3.1 -2.551,-4.125 -1.438,-1.024 -3.247,-1.536 -5.427,-1.536 -2.664,0 -4.752,0.772 -6.266,2.317 -1.514,1.543 -2.271,3.672 -2.271,6.386 0,2.715 0.752,4.872 2.255,6.472 1.504,1.599 3.537,2.399 6.101,2.399 2.513,0 4.518,-0.764 6.016,-2.293 1.499,-1.529 2.248,-3.575 2.248,-6.138 V -6.146 H -3.209 v -0.333 c 0,-1.029 0.313,-1.865 0.939,-2.505 0.625,-0.641 1.443,-0.961 2.452,-0.961 0.747,0 1.392,0.164 1.937,0.492 0.545,0.327 0.919,0.779 1.121,1.354" /></g><g
           transform="translate(74.2514,71.0969)"
           id="g60"><path
             id="path62"
             style="fill:#414142;fill-opacity:1;fill-rule:nonzero;stroke:none"
             d="m 0,0 v 16.848 h 5.207 v -3.164 h 0.105 c 0.455,1.12 1.141,1.975 2.059,2.565 0.918,0.591 2.024,0.886 3.315,0.886 1.877,0 3.347,-0.561 4.413,-1.68 1.064,-1.121 1.596,-2.675 1.596,-4.662 V 0 h -5.373 v 9.643 c 0,0.978 -0.256,1.742 -0.764,2.293 -0.51,0.549 -1.224,0.824 -2.142,0.824 -0.908,0 -1.645,-0.303 -2.211,-0.908 C 5.641,11.246 5.357,10.465 5.357,9.506 V 0 Z" /></g><g
           transform="translate(94.9125,91.6672)"
           id="g64"><path
             id="path66"
             style="fill:#414142;fill-opacity:1;fill-rule:nonzero;stroke:none"
             d="M 0,0 H 5.358 V -3.723 H 8.401 V -7.689 H 5.358 v -7.19 c 0,-1.181 0.651,-1.771 1.954,-1.771 0.373,0 0.736,0.025 1.089,0.076 v -3.815 c -0.616,-0.141 -1.403,-0.212 -2.361,-0.212 -2.16,0 -3.707,0.361 -4.64,1.082 -0.933,0.722 -1.4,1.911 -1.4,3.566 v 8.264 h -2.255 v 3.966 H 0 Z" /></g><g
           transform="translate(122.2494,87.9445)"
           id="g68"><path
             id="path70"
             style="fill:#414142;fill-opacity:1;fill-rule:nonzero;stroke:none"
             d="m 0,0 v -16.848 h -5.222 v 3.179 h -0.106 c -0.383,-1.1 -1.026,-1.952 -1.93,-2.558 -0.903,-0.605 -1.985,-0.908 -3.246,-0.908 -1.848,0 -3.341,0.565 -4.48,1.696 -1.141,1.129 -1.711,2.673 -1.711,4.63 V 0 h 5.358 v -9.627 c 0,-1 0.27,-1.771 0.81,-2.316 0.54,-0.545 1.258,-0.818 2.157,-0.818 0.878,0 1.597,0.3 2.157,0.901 0.56,0.6 0.84,1.385 0.84,2.354 l 0,9.506 z" /></g><g
           transform="translate(124.9447,71.0969)"
           id="g72"><path
             id="path74"
             style="fill:#414142;fill-opacity:1;fill-rule:nonzero;stroke:none"
             d="m 0,0 v 16.848 h 5.207 v -3.164 h 0.105 c 0.616,2.26 1.943,3.39 3.981,3.39 0.484,0 0.939,-0.07 1.363,-0.212 v -4.601 c -0.465,0.202 -1.04,0.302 -1.726,0.302 -1.151,0 -2.034,-0.315 -2.649,-0.946 C 5.666,10.986 5.357,10.081 5.357,8.9 V 0 Z" /></g><g
           transform="translate(144.7885,84.4933)"
           id="g76"><path
             id="path78"
             style="fill:#414142;fill-opacity:1;fill-rule:nonzero;stroke:none"
             d="m 0,0 c -0.857,0 -1.579,-0.288 -2.164,-0.863 -0.585,-0.575 -0.913,-1.312 -0.984,-2.21 H 3.119 C 3.068,-2.145 2.758,-1.4 2.188,-0.841 1.617,-0.28 0.889,0 0,0 m 3.24,-8.099 h 4.844 c -0.263,-1.725 -1.113,-3.1 -2.551,-4.125 -1.438,-1.024 -3.247,-1.536 -5.427,-1.536 -2.664,0 -4.752,0.772 -6.266,2.317 -1.514,1.543 -2.271,3.672 -2.271,6.386 0,2.715 0.752,4.872 2.255,6.472 1.504,1.599 3.537,2.399 6.101,2.399 2.513,0 4.518,-0.764 6.016,-2.293 1.499,-1.529 2.248,-3.575 2.248,-6.138 V -6.146 H -3.209 v -0.333 c 0,-1.029 0.313,-1.865 0.939,-2.505 0.625,-0.641 1.443,-0.961 2.452,-0.961 0.747,0 1.392,0.164 1.937,0.492 0.545,0.327 0.919,0.779 1.121,1.354" /></g><g
           transform="translate(41.7074,54.4582)"
           id="g80"><path
             id="path82"
             style="fill:#414142;fill-opacity:1;fill-rule:nonzero;stroke:none"
             d="m 0,0 v -12.881 h 2.619 c 1.817,0 3.195,0.55 4.14,1.651 0.943,1.099 1.415,2.734 1.415,4.904 0,2.038 -0.485,3.601 -1.453,4.691 C 5.752,-0.545 4.385,0 2.619,0 Z M -5.555,4.48 H 3.36 c 3.31,0 5.881,-0.932 7.712,-2.799 1.832,-1.868 2.748,-4.532 2.748,-7.993 0,-3.481 -0.919,-6.193 -2.756,-8.135 -1.835,-1.944 -4.404,-2.914 -7.704,-2.914 h -8.915 z" /></g><g
           transform="translate(65.8354,50.4933)"
           id="g84"><path
             id="path86"
             style="fill:#414142;fill-opacity:1;fill-rule:nonzero;stroke:none"
             d="m 0,0 c -0.857,0 -1.579,-0.288 -2.164,-0.863 -0.585,-0.575 -0.913,-1.312 -0.984,-2.21 H 3.119 C 3.068,-2.145 2.758,-1.4 2.188,-0.841 1.617,-0.28 0.889,0 0,0 m 3.24,-8.099 h 4.844 c -0.263,-1.725 -1.113,-3.1 -2.551,-4.125 -1.438,-1.024 -3.247,-1.536 -5.427,-1.536 -2.664,0 -4.752,0.772 -6.266,2.317 -1.514,1.543 -2.271,3.672 -2.271,6.386 0,2.715 0.752,4.872 2.255,6.472 1.504,1.599 3.537,2.399 6.101,2.399 2.513,0 4.518,-0.764 6.016,-2.293 1.499,-1.529 2.248,-3.575 2.248,-6.138 V -6.146 H -3.209 v -0.333 c 0,-1.029 0.313,-1.865 0.939,-2.505 0.625,-0.641 1.443,-0.961 2.452,-0.961 0.747,0 1.392,0.164 1.937,0.492 0.545,0.327 0.919,0.779 1.121,1.354" /></g><g
           transform="translate(91.9018,53.9445)"
           id="g88"><path
             id="path90"
             style="fill:#414142;fill-opacity:1;fill-rule:nonzero;stroke:none"
             d="m 0,0 -5.6,-16.848 h -6.175 L -17.452,0 h 5.766 l 3.013,-12.322 h 0.107 L -5.6,0 Z" /></g><g
           transform="translate(100.6811,50.4933)"
           id="g92"><path
             id="path94"
             style="fill:#414142;fill-opacity:1;fill-rule:nonzero;stroke:none"
             d="m 0,0 c -0.857,0 -1.579,-0.288 -2.164,-0.863 -0.585,-0.575 -0.913,-1.312 -0.984,-2.21 H 3.119 C 3.068,-2.145 2.758,-1.4 2.188,-0.841 1.617,-0.28 0.889,0 0,0 m 3.24,-8.099 h 4.844 c -0.263,-1.725 -1.113,-3.1 -2.551,-4.125 -1.438,-1.024 -3.247,-1.536 -5.427,-1.536 -2.664,0 -4.752,0.772 -6.266,2.317 -1.514,1.543 -2.271,3.672 -2.271,6.386 0,2.715 0.752,4.872 2.255,6.472 1.504,1.599 3.537,2.399 6.101,2.399 2.513,0 4.518,-0.764 6.016,-2.293 1.499,-1.529 2.248,-3.575 2.248,-6.138 V -6.146 H -3.209 v -0.333 c 0,-1.029 0.313,-1.865 0.939,-2.505 0.625,-0.641 1.443,-0.961 2.452,-0.961 0.747,0 1.392,0.164 1.937,0.492 0.545,0.327 0.919,0.779 1.121,1.354" /></g><path
           id="path96"
           style="fill:#414142;fill-opacity:1;fill-rule:nonzero;stroke:none"
           d="m 111.109,60.029 h 5.359 V 37.097 h -5.359 z" /><g
           transform="translate(125.0053,41.9484)"
           id="g98"><path
             id="path100"
             style="fill:#414142;fill-opacity:1;fill-rule:nonzero;stroke:none"
             d="m 0,0 c 0.555,-0.843 1.327,-1.264 2.316,-1.264 0.989,0 1.761,0.421 2.316,1.264 0.555,0.842 0.833,2.035 0.833,3.58 0,1.503 -0.283,2.684 -0.848,3.541 C 4.052,7.979 3.285,8.408 2.316,8.408 1.337,8.408 0.567,7.981 0.008,7.129 -0.553,6.276 -0.832,5.094 -0.832,3.58 -0.832,2.035 -0.555,0.842 0,0 M 8.613,-2.898 C 7.089,-4.443 4.99,-5.215 2.316,-5.215 c -2.674,0 -4.773,0.775 -6.296,2.323 -1.525,1.549 -2.287,3.706 -2.287,6.472 0,2.714 0.773,4.856 2.316,6.425 1.545,1.569 3.633,2.354 6.267,2.354 2.644,0 4.735,-0.78 6.274,-2.338 1.539,-1.56 2.308,-3.707 2.308,-6.441 0,-2.775 -0.761,-4.935 -2.285,-6.478" /></g><g
           transform="translate(144.2904,42.2883)"
           id="g102"><path
             id="path104"
             style="fill:#414142;fill-opacity:1;fill-rule:nonzero;stroke:none"
             d="m 0,0 c 0.585,-0.797 1.372,-1.195 2.361,-1.195 0.99,0 1.777,0.401 2.362,1.203 0.585,0.803 0.878,1.88 0.878,3.232 0,1.342 -0.295,2.414 -0.886,3.216 C 4.125,7.259 3.34,7.66 2.361,7.66 1.383,7.66 0.598,7.256 0.008,6.449 -0.583,5.642 -0.878,4.566 -0.878,3.225 -0.878,1.872 -0.585,0.798 0,0 m 4.344,11.883 c 2.13,0 3.787,-0.757 4.972,-2.271 1.186,-1.513 1.78,-3.637 1.78,-6.372 0,-2.735 -0.589,-4.862 -1.764,-6.381 -1.176,-1.518 -2.818,-2.277 -4.928,-2.277 -1.22,0 -2.28,0.272 -3.177,0.816 -0.899,0.545 -1.56,1.308 -1.984,2.287 h -0.106 v -8.007 h -5.358 v 21.978 h 5.328 V 8.704 h 0.106 c 0.424,0.999 1.085,1.778 1.982,2.339 0.899,0.56 1.949,0.84 3.149,0.84" /></g><g
           transform="translate(157.5502,37.0969)"
           id="g106"><path
             id="path108"
             style="fill:#414142;fill-opacity:1;fill-rule:nonzero;stroke:none"
             d="m 0,0 v 16.848 h 5.207 v -3.241 h 0.105 c 0.334,1.081 0.934,1.938 1.801,2.575 0.868,0.634 1.872,0.953 3.013,0.953 1.251,0 2.286,-0.311 3.103,-0.931 0.818,-0.621 1.347,-1.501 1.589,-2.641 h 0.106 c 0.334,1.089 0.972,1.958 1.915,2.603 0.943,0.646 2.041,0.969 3.292,0.969 1.645,0 2.977,-0.528 3.996,-1.582 1.019,-1.055 1.529,-2.435 1.529,-4.14 V 0 h -5.358 v 10.051 c 0,0.898 -0.204,1.576 -0.613,2.036 -0.409,0.459 -1.012,0.688 -1.809,0.688 -0.757,0 -1.36,-0.252 -1.809,-0.756 C 15.618,11.514 15.394,10.838 15.394,9.99 V 0 h -5.117 v 10.127 c 0,0.848 -0.21,1.5 -0.628,1.96 -0.419,0.459 -1.016,0.688 -1.794,0.688 -0.747,0 -1.349,-0.257 -1.808,-0.771 C 5.587,11.488 5.357,10.808 5.357,9.96 V 0 Z" /></g><g
           transform="translate(193.726,50.4933)"
           id="g110"><path
             id="path112"
             style="fill:#414142;fill-opacity:1;fill-rule:nonzero;stroke:none"
             d="m 0,0 c -0.857,0 -1.579,-0.288 -2.164,-0.863 -0.585,-0.575 -0.913,-1.312 -0.984,-2.21 H 3.119 C 3.068,-2.145 2.758,-1.4 2.188,-0.841 1.617,-0.28 0.889,0 0,0 m 3.24,-8.099 h 4.844 c -0.263,-1.725 -1.113,-3.1 -2.551,-4.125 -1.438,-1.024 -3.247,-1.536 -5.427,-1.536 -2.664,0 -4.752,0.772 -6.266,2.317 -1.514,1.543 -2.271,3.672 -2.271,6.386 0,2.715 0.752,4.872 2.255,6.472 1.504,1.599 3.537,2.399 6.101,2.399 2.513,0 4.518,-0.764 6.016,-2.293 1.499,-1.529 2.248,-3.575 2.248,-6.138 V -6.146 H -3.209 v -0.333 c 0,-1.029 0.313,-1.865 0.939,-2.505 0.625,-0.641 1.443,-0.961 2.452,-0.961 0.747,0 1.392,0.164 1.937,0.492 0.545,0.327 0.919,0.779 1.121,1.354" /></g><g
           transform="translate(204.0658,37.0969)"
           id="g114"><path
             id="path116"
             style="fill:#414142;fill-opacity:1;fill-rule:nonzero;stroke:none"
             d="m 0,0 v 16.848 h 5.207 v -3.164 h 0.105 c 0.455,1.12 1.141,1.975 2.059,2.565 0.918,0.591 2.024,0.886 3.315,0.886 1.877,0 3.347,-0.561 4.413,-1.68 1.064,-1.121 1.596,-2.675 1.596,-4.662 V 0 h -5.373 v 9.643 c 0,0.978 -0.256,1.742 -0.764,2.293 -0.51,0.549 -1.224,0.824 -2.142,0.824 -0.908,0 -1.645,-0.303 -2.211,-0.908 C 5.641,11.246 5.357,10.465 5.357,9.506 V 0 Z" /></g><g
           transform="translate(224.727,57.6672)"
           id="g118"><path
             id="path120"
             style="fill:#414142;fill-opacity:1;fill-rule:nonzero;stroke:none"
             d="M 0,0 H 5.358 V -3.723 H 8.401 V -7.689 H 5.358 v -7.19 c 0,-1.181 0.651,-1.771 1.954,-1.771 0.373,0 0.736,0.025 1.089,0.076 v -3.815 c -0.616,-0.141 -1.403,-0.212 -2.361,-0.212 -2.16,0 -3.707,0.361 -4.64,1.082 -0.933,0.722 -1.4,1.911 -1.4,3.566 v 8.264 h -2.255 v 3.966 H 0 Z" /></g><path
           id="path122"
           style="fill:#414142;fill-opacity:1;fill-rule:nonzero;stroke:none"
           d="m 29.241,26.899 h -3 v 65.995 h 3 z" /><path
           id="path124"
           style="fill:#414142;fill-opacity:1;fill-rule:nonzero;stroke:none"
           d="M 157.556,25.899 H 26.739 v 2.803 h 130.817 z" /><g
           transform="translate(4e-4,1.9821)"
           id="g126"><path
             id="path128"
             style="fill:#414142;fill-opacity:1;fill-rule:nonzero;stroke:none"
             d="M 0,0 27.258,27.258 29.24,25.276 1.982,-1.982 Z" /></g></g></g></g></svg>