<?xml version="1.0" encoding="UTF-8"?> <svg xmlns="http://www.w3.org/2000/svg" width="934" height="273" viewBox="0 0 934 273" fill="none"><path d="M221.141 160.212C205.858 182.69 181.894 198.557 153.969 203.279V168.523C171.328 163.99 186.045 152.846 195.102 137.923C201.329 127.723 204.914 115.635 204.914 102.79C204.914 81.8234 195.48 62.9346 180.385 50.6568C172.837 44.2346 163.78 39.5123 153.969 37.0568C148.497 35.7346 142.836 34.979 136.987 34.979C131.138 34.979 125.477 35.7346 120.005 37.0568C110.193 39.5123 101.136 44.2346 93.5889 50.6568C78.6826 63.1234 69.0596 81.8234 69.0596 102.79C69.0596 115.635 72.6446 127.723 78.8713 137.923C87.9283 152.846 102.646 164.179 120.005 168.523V203.279C92.2681 198.557 68.1162 182.69 52.8325 160.212L26.9824 182.312C48.4927 211.968 81.8903 232.746 120.005 237.468C125.477 238.223 131.138 238.601 136.987 238.601C142.836 238.601 148.497 238.223 153.969 237.468C192.272 232.746 225.481 211.968 246.991 182.312L221.141 160.212ZM137.176 136.601C118.496 136.601 103.212 121.301 103.212 102.601C103.212 83.9012 118.496 68.6012 137.176 68.6012C155.856 68.6012 171.139 83.9012 171.139 102.601C171.139 121.301 155.856 136.601 137.176 136.601Z" fill="#2F80ED"></path><path d="M467.566 103.168C462.849 103.168 458.321 104.112 453.792 105.812C449.264 107.701 444.358 110.912 438.697 115.446V105.624H414.168V202.335H438.697V163.612C438.697 153.601 439.075 146.99 439.829 143.968C441.15 138.112 443.603 133.579 447.188 130.368C450.773 127.157 454.924 125.457 460.019 125.457C463.793 125.457 467 126.401 469.642 128.479C472.283 130.557 473.982 133.39 475.114 137.168C476.246 140.946 476.623 148.69 476.623 160.212V202.524H500.775V138.49C500.775 127.346 497.945 119.035 492.284 113.179C485.492 106.568 477.189 103.168 467.566 103.168Z" fill="#1D1D2E"></path><path d="M687.575 103.168C682.669 103.168 677.763 104.113 672.858 106.19C667.952 108.268 663.234 111.29 658.517 115.446V68.2236H634.177V202.335H658.517V163.613C658.517 153.224 658.895 146.613 659.649 143.779C660.97 138.113 663.423 133.768 667.008 130.368C670.593 127.157 674.744 125.457 679.839 125.457C683.613 125.457 686.82 126.401 689.462 128.479C692.104 130.368 693.802 133.39 694.934 137.357C696.066 141.324 696.632 148.879 696.632 160.024V202.335H720.784V138.49C720.784 127.346 717.954 118.846 712.293 113.179C705.312 106.568 697.198 103.168 687.575 103.168Z" fill="#1D1D2E"></path><path d="M815.883 110.157C807.769 105.624 799.09 103.357 790.033 103.357C777.391 103.357 766.07 107.702 756.258 116.579C745.125 126.591 739.465 139.246 739.465 154.357C739.465 168.524 744.371 180.424 754.371 190.246C764.183 200.068 776.259 204.979 790.222 204.979C799.656 204.979 808.336 202.713 816.26 198.368C824.185 193.835 830.412 187.791 834.94 179.668C839.469 171.735 841.733 163.235 841.733 153.979C841.733 144.913 839.469 136.413 834.94 128.668C830.223 120.924 823.997 114.691 815.883 110.157ZM809.279 174.379C804.184 179.668 797.769 182.313 790.222 182.313C782.674 182.313 776.259 179.668 771.164 174.568C766.258 169.279 763.617 162.479 763.617 154.168C763.617 146.046 766.07 139.246 771.164 133.957C776.259 128.668 782.485 126.024 790.222 126.024C797.958 126.024 804.373 128.668 809.468 133.768C814.374 138.868 817.015 145.668 817.015 153.979C817.015 162.479 814.374 169.091 809.279 174.379Z" fill="#1D1D2E"></path><path d="M590.779 174.379C585.684 179.668 579.269 182.312 571.722 182.312C564.174 182.312 557.759 179.668 552.664 174.379C547.758 169.09 545.117 162.29 545.117 153.979C545.117 145.857 547.57 139.057 552.664 133.768C557.759 128.479 563.985 125.835 571.722 125.835C579.458 125.835 585.873 128.479 590.968 133.579C592.1 134.901 593.232 136.223 594.175 137.546L614.931 126.212C610.591 119.412 604.742 113.935 597.383 109.779C589.27 105.246 580.59 102.979 571.533 102.979C558.891 102.979 547.57 107.323 537.758 116.201C526.625 126.212 520.965 138.868 520.965 153.979C520.965 168.146 525.871 180.046 535.871 189.868C545.683 199.69 557.759 204.601 571.722 204.601C581.156 204.601 589.836 202.335 597.76 197.99C604.364 194.212 609.836 189.112 614.176 182.879L594.553 169.657C593.232 171.546 592.1 173.057 590.779 174.379Z" fill="#1D1D2E"></path><path d="M900.036 126.402V104.302C899.282 103.924 899.093 103.735 898.15 103.357L876.828 118.091V105.813H855.884V202.524H880.224V163.235V158.513C880.224 155.679 880.224 153.224 880.413 150.957C880.413 148.879 881.356 146.991 882.677 145.479L900.036 126.402Z" fill="#1D1D2E"></path><path d="M366.242 105.624V110.724C365.864 110.535 365.487 110.346 365.11 109.968C356.996 105.435 348.316 103.168 339.259 103.168C326.617 103.168 315.296 107.512 305.485 116.39C294.352 126.401 288.691 139.057 288.691 154.168C288.691 168.335 293.597 180.235 303.598 190.057C313.409 199.879 325.485 204.79 339.448 204.79C348.882 204.79 357.562 202.524 365.487 198.179C365.864 197.99 366.053 197.801 366.43 197.612V202.524H391.148V105.624H366.242ZM358.694 174.379C353.6 179.668 347.184 182.312 339.637 182.312C332.089 182.312 325.674 179.668 320.579 174.568C315.674 169.279 313.032 162.479 313.032 154.168C313.032 146.046 315.485 139.246 320.579 133.957C325.674 128.668 331.901 126.024 339.637 126.024C347.373 126.024 353.788 128.668 358.883 133.768C363.789 138.868 366.43 145.668 366.43 153.979C366.242 162.479 363.789 169.09 358.694 174.379Z" fill="#1D1D2E"></path><path d="M625.321 263C623.536 263 621.951 262.646 620.566 261.938C619.212 261.231 618.135 260.231 617.335 258.938L616.828 262.446H612.442V229.211H617.335V243.105C618.074 242.028 619.089 241.074 620.382 240.243C621.674 239.412 623.336 238.997 625.367 238.997C627.583 238.997 629.537 239.52 631.229 240.566C632.922 241.613 634.245 243.044 635.199 244.859C636.184 246.675 636.676 248.737 636.676 251.045C636.676 253.353 636.184 255.415 635.199 257.23C634.245 259.015 632.922 260.431 631.229 261.477C629.537 262.492 627.567 263 625.321 263ZM624.49 258.753C626.583 258.753 628.306 258.046 629.66 256.63C631.014 255.184 631.691 253.307 631.691 250.999C631.691 249.491 631.383 248.152 630.768 246.983C630.152 245.813 629.306 244.905 628.229 244.259C627.152 243.582 625.906 243.244 624.49 243.244C622.397 243.244 620.674 243.967 619.32 245.413C617.997 246.86 617.335 248.721 617.335 250.999C617.335 253.307 617.997 255.184 619.32 256.63C620.674 258.046 622.397 258.753 624.49 258.753Z" fill="#495057"></path><path d="M642.707 272.601L648.2 260.554H646.862L637.814 239.551H643.123L650.139 256.492L657.478 239.551H662.648L647.877 272.601H642.707Z" fill="#495057"></path><path d="M688.733 263C686.518 263 684.563 262.477 682.871 261.431C681.178 260.384 679.855 258.953 678.901 257.138C677.947 255.322 677.47 253.26 677.47 250.952C677.47 248.644 677.947 246.598 678.901 244.813C679.855 242.998 681.178 241.582 682.871 240.566C684.594 239.52 686.564 238.997 688.779 238.997C690.595 238.997 692.18 239.351 693.534 240.059C694.919 240.766 695.996 241.767 696.765 243.059V229.211H701.658V262.446H697.273L696.765 258.892C696.026 259.969 695.011 260.923 693.718 261.754C692.426 262.585 690.764 263 688.733 263ZM689.61 258.753C691.703 258.753 693.411 258.03 694.734 256.584C696.088 255.138 696.765 253.276 696.765 250.999C696.765 248.691 696.088 246.829 694.734 245.413C693.411 243.967 691.703 243.244 689.61 243.244C687.518 243.244 685.794 243.967 684.44 245.413C683.086 246.829 682.409 248.691 682.409 250.999C682.409 252.506 682.717 253.845 683.333 255.014C683.948 256.184 684.794 257.107 685.871 257.784C686.979 258.43 688.225 258.753 689.61 258.753Z" fill="#495057"></path><path d="M715.582 263C713.643 263 712.043 262.677 710.781 262.031C709.52 261.385 708.581 260.538 707.966 259.492C707.35 258.415 707.042 257.246 707.042 255.984C707.042 253.768 707.904 252.014 709.627 250.722C711.351 249.429 713.812 248.783 717.013 248.783H723.014V248.367C723.014 246.583 722.521 245.244 721.537 244.352C720.583 243.459 719.336 243.013 717.798 243.013C716.444 243.013 715.259 243.351 714.243 244.028C713.259 244.675 712.659 245.644 712.443 246.937H707.55C707.704 245.275 708.258 243.859 709.212 242.69C710.197 241.49 711.428 240.582 712.905 239.966C714.413 239.32 716.059 238.997 717.844 238.997C721.044 238.997 723.521 239.843 725.276 241.536C727.03 243.198 727.907 245.475 727.907 248.367V262.446H723.66L723.244 258.523C722.598 259.784 721.66 260.846 720.429 261.708C719.198 262.569 717.582 263 715.582 263ZM716.551 259.03C717.875 259.03 718.982 258.723 719.875 258.107C720.798 257.461 721.506 256.615 721.998 255.568C722.521 254.522 722.844 253.368 722.968 252.106H717.521C715.582 252.106 714.197 252.445 713.366 253.122C712.566 253.799 712.166 254.645 712.166 255.661C712.166 256.707 712.551 257.538 713.32 258.153C714.12 258.738 715.197 259.03 716.551 259.03Z" fill="#495057"></path><path d="M742.762 262.446C740.516 262.446 738.731 261.908 737.408 260.831C736.084 259.723 735.423 257.769 735.423 254.968V243.659H731.499V239.551H735.423L736.023 233.735H740.316V239.551H746.778V243.659H740.316V254.968C740.316 256.23 740.577 257.107 741.1 257.599C741.654 258.061 742.593 258.292 743.916 258.292H746.547V262.446H742.762Z" fill="#495057"></path><path d="M759.578 263C757.639 263 756.039 262.677 754.777 262.031C753.516 261.385 752.577 260.538 751.962 259.492C751.346 258.415 751.038 257.246 751.038 255.984C751.038 253.768 751.9 252.014 753.623 250.722C755.347 249.429 757.808 248.783 761.009 248.783H767.01V248.367C767.01 246.583 766.517 245.244 765.533 244.352C764.579 243.459 763.332 243.013 761.794 243.013C760.44 243.013 759.255 243.351 758.239 244.028C757.255 244.675 756.654 245.644 756.439 246.937H751.546C751.7 245.275 752.254 243.859 753.208 242.69C754.193 241.49 755.424 240.582 756.901 239.966C758.409 239.32 760.055 238.997 761.84 238.997C765.04 238.997 767.517 239.843 769.271 241.536C771.026 243.198 771.903 245.475 771.903 248.367V262.446H767.656L767.24 258.523C766.594 259.784 765.656 260.846 764.425 261.708C763.194 262.569 761.578 263 759.578 263ZM760.547 259.03C761.871 259.03 762.978 258.723 763.871 258.107C764.794 257.461 765.502 256.615 765.994 255.568C766.517 254.522 766.84 253.368 766.963 252.106H761.517C759.578 252.106 758.193 252.445 757.362 253.122C756.562 253.799 756.162 254.645 756.162 255.661C756.162 256.707 756.547 257.538 757.316 258.153C758.116 258.738 759.193 259.03 760.547 259.03Z" fill="#495057"></path><path d="M777.608 262.446V239.551H781.947L782.316 243.567C783.024 242.151 784.055 241.043 785.409 240.243C786.793 239.412 788.378 238.997 790.163 238.997C792.933 238.997 795.102 239.859 796.672 241.582C798.272 243.305 799.072 245.875 799.072 249.291V262.446H794.225V249.798C794.225 245.367 792.41 243.151 788.778 243.151C786.963 243.151 785.455 243.798 784.255 245.09C783.085 246.383 782.501 248.229 782.501 250.629V262.446H777.608Z" fill="#495057"></path><path d="M815.682 263C813.436 263 811.42 262.492 809.635 261.477C807.881 260.461 806.496 259.061 805.481 257.276C804.496 255.461 804.004 253.368 804.004 250.999C804.004 248.629 804.496 246.552 805.481 244.767C806.496 242.951 807.881 241.536 809.635 240.52C811.42 239.505 813.436 238.997 815.682 238.997C818.513 238.997 820.883 239.736 822.791 241.213C824.73 242.69 825.976 244.69 826.53 247.213H821.406C821.098 245.952 820.421 244.967 819.375 244.259C818.329 243.551 817.098 243.198 815.682 243.198C814.482 243.198 813.374 243.505 812.359 244.121C811.343 244.705 810.528 245.582 809.912 246.752C809.297 247.89 808.989 249.306 808.989 250.999C808.989 252.691 809.297 254.122 809.912 255.291C810.528 256.43 811.343 257.307 812.359 257.923C813.374 258.538 814.482 258.846 815.682 258.846C817.098 258.846 818.329 258.492 819.375 257.784C820.421 257.076 821.098 256.076 821.406 254.784H826.53C826.007 257.246 824.776 259.23 822.837 260.738C820.898 262.246 818.513 263 815.682 263Z" fill="#495057"></path><path d="M831.836 262.446V229.211H836.729V243.244C837.499 241.92 838.56 240.89 839.914 240.151C841.299 239.382 842.822 238.997 844.484 238.997C847.223 238.997 849.377 239.859 850.946 241.582C852.516 243.305 853.301 245.875 853.301 249.291V262.446H848.454V249.798C848.454 245.367 846.684 243.151 843.145 243.151C841.299 243.151 839.76 243.798 838.529 245.09C837.329 246.383 836.729 248.229 836.729 250.629V262.446H831.836Z" fill="#495057"></path><path d="M869.772 263C867.587 263 865.618 262.508 863.864 261.523C862.141 260.507 860.771 259.107 859.756 257.322C858.74 255.507 858.232 253.399 858.232 250.999C858.232 248.598 858.74 246.506 859.756 244.721C860.802 242.905 862.202 241.505 863.956 240.52C865.71 239.505 867.664 238.997 869.819 238.997C872.003 238.997 873.958 239.505 875.681 240.52C877.435 241.505 878.82 242.905 879.835 244.721C880.881 246.506 881.405 248.598 881.405 250.999C881.405 253.399 880.881 255.507 879.835 257.322C878.82 259.107 877.435 260.507 875.681 261.523C873.927 262.508 871.957 263 869.772 263ZM869.772 258.8C870.942 258.8 872.019 258.507 873.004 257.923C874.019 257.338 874.835 256.476 875.45 255.338C876.065 254.168 876.373 252.722 876.373 250.999C876.373 249.275 876.065 247.844 875.45 246.706C874.865 245.536 874.065 244.659 873.05 244.075C872.065 243.49 870.988 243.198 869.819 243.198C868.649 243.198 867.557 243.49 866.541 244.075C865.556 244.659 864.756 245.536 864.141 246.706C863.525 247.844 863.218 249.275 863.218 250.999C863.218 252.722 863.525 254.168 864.141 255.338C864.756 256.476 865.556 257.338 866.541 257.923C867.526 258.507 868.603 258.8 869.772 258.8Z" fill="#495057"></path><path d="M886.696 262.446V239.551H891.081L891.497 243.89C892.297 242.382 893.405 241.197 894.82 240.336C896.266 239.443 898.005 238.997 900.036 238.997V244.121H898.698C897.344 244.121 896.128 244.352 895.051 244.813C894.005 245.244 893.158 245.998 892.512 247.075C891.897 248.121 891.589 249.583 891.589 251.46V262.446H886.696Z" fill="#495057"></path></svg> 