<?xml version="1.0" encoding="utf-8"?>
<!-- Generator: Adobe Illustrator 25.2.1, SVG Export Plug-In . SVG Version: 6.00 Build 0)  -->
<svg version="1.1" id="Layer_1" xmlns="http://www.w3.org/2000/svg" xmlns:xlink="http://www.w3.org/1999/xlink" x="0px" y="0px"
	 viewBox="0 0 1600 1600" style="enable-background:new 0 0 1600 1600;" xml:space="preserve">
<style type="text/css">
	.st0{fill:#2E5894;}
	.st1{fill:#FFFFFF;}
</style>
<circle class="st0" cx="800" cy="800" r="800"/>
<g>
	<g>
		<g>
			<path class="st1" d="M629.1,552.9c60.1,5.6,111.7-45.3,106.6-102.8c-2.7-30.1,9.2-53,36.5-67c36.5-18.7,83.6,5.8,90.4,46.3
				c7.6,45.4-28.8,79.2-66.3,76.2c-24.9-2-48.1,2.4-68.2,18c-27.9,21.6-42.7,49.7-39.4,85.6c3.9,42.9-29.6,74.1-68.2,71.8
				c-31.1-1.9-57-26.9-59.7-58.4c-2.7-31.9,18.8-62,49.3-68.4C617.2,552.7,624.7,553.2,629.1,552.9z"/>
			<path class="st1" d="M735.6,626c-3.5-39.3,22.6-65.6,51.6-71.5c34.7-7,69.8,17.2,75.5,51.9c6.1,37.5-18.5,71.2-55.2,74.9
				c-12.9,1.3-26.1-0.3-38.9,1.4c-48.2,6.7-84.6,53.7-80.2,102.2c3.4,37.4-20.5,67.8-57.7,71.7c-24.5,2.6-44.7-7.3-58.7-27.3
				c-13.4-19.2-15.9-40.5-6-62.2c12.4-27.3,34.6-40,64.1-38.2c22.7,1.4,43.4-2.9,62.3-15.2C719.5,696.2,739.9,661.6,735.6,626z"/>
			<path class="st1" d="M911.7,624.7c-3.3-38.3,21.6-63.4,50.2-70c26-6,54.9,6.7,69.1,30.7c13.6,23,10.6,55.1-6.9,74.7
				c-15.1,16.9-34.3,23.9-56.5,21.7c-52.7-5-102,38.1-103.4,91c-0.2,7.1,0.5,14.2,0.3,21.3c-0.6,36.4-32,65.8-67.1,63
				c-38.2-3-65.4-35.9-60.3-73c4.4-32.3,30.7-54.9,64.1-55.4c12.4-0.2,25.2,0.8,37.1-2C886.6,715.5,916.4,668.2,911.7,624.7z"/>
			<path class="st1" d="M622.2,380.4c33.3-1.3,63.8,27,65.7,59.6c2.1,36.4-27.7,68.3-60.2,69.5c-36.5,1.4-67.5-25.7-69-60.5
				C557.1,411.6,584.6,381.9,622.2,380.4z"/>
			<path class="st1" d="M910,442.7c0.1-36.5,28.5-64.7,64.8-64.5c35.5,0.2,63.7,28.9,63.6,64.9c-0.1,35.6-28.9,64.4-64.4,64.2
				C938.3,507,909.9,478.4,910,442.7z"/>
			<path class="st1" d="M977.7,728.5c35.1,0,64,29.3,63.8,64.9c-0.2,34.7-29.6,64-64.2,63.9c-35-0.1-64.9-29.9-64.8-64.5
				C912.7,757,941.5,728.5,977.7,728.5z"/>
		</g>
		<g>
			<path class="st1" d="M384.2,987.5h34.1v69c-19.1,21-46.3,31.5-81.7,31.5c-29.8,0-54.8-9.8-74.9-29.5
				c-20.1-19.6-30.2-44.5-30.2-74.5c0-30,10.3-55.1,30.8-75.1c20.5-20,45.3-30,74.4-30c29.1,0,53.2,8.5,72.5,25.4l-18.2,26
				c-7.9-6.7-15.8-11.4-23.8-14c-8-2.6-17.3-3.9-27.9-3.9c-20.4,0-37.5,6.6-51.4,19.8c-13.9,13.2-20.8,30.5-20.8,52
				c0,21.5,6.7,38.7,20.2,51.7c13.5,13,29.8,19.5,48.9,19.5c19.2,0,35.2-4.1,48.1-12.4V987.5z"/>
			<path class="st1" d="M490.8,1085.7h-32.3V871.4h32.3V1085.7z"/>
			<path class="st1" d="M662,1085.7h-29.5v-20.5c-12.7,15.2-29.7,22.8-51.1,22.8c-16,0-29.2-4.5-39.7-13.6
				c-10.5-9-15.7-21.1-15.7-36.2c0-15.1,5.6-26.4,16.7-33.9c11.2-7.5,26.3-11.3,45.3-11.3h41.9v-5.8c0-20.4-11.4-30.6-34.1-30.6
				c-14.2,0-29.1,5.2-44.5,15.6L536.9,952c18.7-14.8,39.8-22.2,63.5-22.2c18.1,0,32.9,4.6,44.3,13.7c11.5,9.1,17.2,23.5,17.2,43.2
				V1085.7z M629.6,1028.5v-13h-36.4c-23.3,0-34.9,7.3-34.9,21.9c0,7.5,2.9,13.2,8.7,17.2c5.8,3.9,13.8,5.9,24.1,5.9
				c10.3,0,19.3-2.9,27-8.7C625.8,1046.1,629.6,1038.3,629.6,1028.5z"/>
			<path class="st1" d="M814.4,1015.2v-83.2h32.3v153.6h-32.3v-28c-5.2,9.4-12.4,16.8-21.5,22.2c-9.1,5.4-19,8.1-29.6,8.1
				c-17.3,0-31.3-5.3-42-15.9c-10.7-10.6-16-25.9-16-45.9v-94.1h32.3v84.3c0,28.3,11.7,42.4,35.2,42.4c11.2,0,20.9-3.7,29.2-11.1
				C810.3,1040.3,814.4,1029.5,814.4,1015.2z"/>
			<path class="st1" d="M961.7,1088c-21.4,0-39.8-7.3-55.2-21.8c-15.4-14.5-23.1-33.5-23.1-57c0-23.5,8-42.6,24.1-57.3
				c16.1-14.7,35.7-22.1,58.8-22.1s42.6,8,58.6,24l-19.1,23.4c-13.3-11.6-26.7-17.3-40.1-17.3c-13.5,0-25.2,4.5-35.1,13.4
				c-9.9,9-14.9,20.5-14.9,34.6s4.9,26.1,14.7,36c9.8,9.8,21.9,14.7,36.2,14.7c14.3,0,27.9-6.5,40.6-19.6l19.1,20.8
				C1007.7,1078.6,986.1,1088,961.7,1088z"/>
			<path class="st1" d="M1185.2,1065c-15.4,15.3-34.7,23-57.8,23c-23.1,0-42.4-7.7-57.7-23c-15.4-15.3-23.1-34-23.1-56.2
				c0-22.1,7.7-40.9,23.1-56.2c15.4-15.3,34.6-23,57.7-23c23.1,0,42.3,7.7,57.8,23c15.4,15.3,23.1,34,23.1,56.2
				C1208.3,1031,1200.6,1049.7,1185.2,1065z M1092.6,1045.1c9.1,9.3,20.7,14,34.8,14c14,0,25.6-4.7,34.8-14
				c9.1-9.3,13.7-21.4,13.7-36.2c0-14.8-4.6-26.9-13.7-36.2c-9.1-9.3-20.7-14-34.8-14c-14.1,0-25.7,4.7-34.8,14
				c-9.1,9.3-13.7,21.4-13.7,36.2C1078.9,1023.7,1083.5,1035.8,1092.6,1045.1z"/>
			<path class="st1" d="M1307.3,915v170.7h-34.1V915H1212v-31.2h156.5V915H1307.3z"/>
		</g>
	</g>
	<g>
		<path class="st1" d="M484.4,1165.5h3.3v45h-3.3V1165.5z"/>
		<path class="st1" d="M528.8,1180.3c2.4,2.4,3.7,6,3.7,10.5v19.6h-3.2v-19.4c0-3.8-1-6.6-2.9-8.6c-1.9-2-4.6-3-8-3
			c-3.9,0-7.1,1.2-9.3,3.5c-2.3,2.4-3.4,5.5-3.4,9.5v17.9h-3.2v-33.6h3.1v7.3c1.2-2.4,2.9-4.2,5.2-5.5c2.3-1.3,5-2,8.1-2
			C523,1176.7,526.3,1177.9,528.8,1180.3z"/>
		<path class="st1" d="M572,1180.3c2.4,2.4,3.7,6,3.7,10.5v19.6h-3.2v-19.4c0-3.8-1-6.6-2.9-8.6c-1.9-2-4.6-3-8-3
			c-3.9,0-7.1,1.2-9.3,3.5c-2.3,2.4-3.4,5.5-3.4,9.5v17.9h-3.2v-33.6h3.1v7.3c1.2-2.4,2.9-4.2,5.2-5.5c2.3-1.3,5-2,8.1-2
			C566.3,1176.7,569.6,1177.9,572,1180.3z"/>
		<path class="st1" d="M593.6,1208.6c-2.6-1.5-4.6-3.5-6-6.1c-1.5-2.6-2.2-5.5-2.2-8.8c0-3.3,0.7-6.2,2.2-8.8c1.5-2.6,3.5-4.6,6-6.1
			c2.6-1.5,5.4-2.2,8.6-2.2c3.2,0,6,0.7,8.6,2.2c2.6,1.5,4.6,3.5,6,6.1c1.5,2.6,2.2,5.5,2.2,8.8c0,3.3-0.7,6.2-2.2,8.8
			c-1.5,2.6-3.5,4.6-6,6.1c-2.6,1.5-5.4,2.2-8.6,2.2C599,1210.7,596.1,1210,593.6,1208.6z M609.1,1206c2-1.2,3.6-2.9,4.8-5
			c1.2-2.1,1.8-4.6,1.8-7.3c0-2.7-0.6-5.2-1.8-7.3c-1.2-2.1-2.8-3.8-4.8-5c-2-1.2-4.3-1.8-6.9-1.8c-2.6,0-4.9,0.6-6.9,1.8
			c-2,1.2-3.6,2.9-4.8,5c-1.2,2.1-1.8,4.6-1.8,7.3c0,2.7,0.6,5.2,1.8,7.3c1.2,2.1,2.8,3.8,4.8,5c2,1.2,4.3,1.8,6.9,1.8
			C604.7,1207.8,607,1207.2,609.1,1206z"/>
		<path class="st1" d="M654.9,1176.9l-15.2,33.6h-3.3l-15.1-33.6h3.4l13.4,30l13.5-30H654.9z"/>
		<path class="st1" d="M681.8,1179.8c2.2,2.1,3.3,5.2,3.3,9.4v21.3H682v-6c-1.1,2-2.6,3.5-4.7,4.6c-2.1,1.1-4.5,1.6-7.4,1.6
			c-3.7,0-6.7-0.9-8.8-2.6c-2.2-1.8-3.2-4.1-3.2-6.9c0-2.8,1-5,3-6.8c2-1.7,5.2-2.6,9.6-2.6h11.5v-2.7c0-3.1-0.8-5.5-2.5-7.1
			c-1.7-1.6-4.2-2.4-7.4-2.4c-2.2,0-4.4,0.4-6.4,1.2c-2,0.8-3.8,1.8-5.2,3.1l-1.6-2.3c1.7-1.5,3.7-2.7,6-3.5
			c2.4-0.8,4.8-1.3,7.4-1.3C676.3,1176.7,679.5,1177.7,681.8,1179.8z M677.5,1206.2c2-1.3,3.4-3.2,4.4-5.6v-6.3h-11.4
			c-3.3,0-5.7,0.6-7.2,1.8c-1.5,1.2-2.2,2.9-2.2,5c0,2.2,0.8,3.9,2.4,5.2c1.6,1.3,3.9,1.9,6.9,1.9
			C673.2,1208.1,675.5,1207.5,677.5,1206.2z"/>
		<path class="st1" d="M715,1208.4c-0.8,0.8-1.8,1.4-3.1,1.8c-1.2,0.4-2.5,0.6-3.8,0.6c-2.9,0-5.2-0.8-6.8-2.4
			c-1.6-1.6-2.4-3.8-2.4-6.7v-21.9h-6.2v-2.8h6.2v-7.3h3.2v7.3h10.7v2.8h-10.7v21.6c0,2.2,0.5,3.8,1.6,5c1,1.1,2.6,1.7,4.7,1.7
			c2.1,0,3.8-0.6,5.2-1.9L715,1208.4z"/>
		<path class="st1" d="M723.7,1168c-0.5-0.5-0.8-1.1-0.8-1.8c0-0.7,0.3-1.4,0.8-1.9c0.5-0.5,1.1-0.8,1.9-0.8c0.7,0,1.4,0.2,1.9,0.7
			c0.5,0.5,0.8,1.1,0.8,1.8s-0.3,1.3-0.8,1.9c-0.5,0.5-1.1,0.8-1.9,0.8C724.8,1168.7,724.2,1168.5,723.7,1168z M723.9,1176.9h3.2
			v33.6h-3.2V1176.9z"/>
		<path class="st1" d="M745.3,1208.6c-2.6-1.5-4.6-3.5-6-6.1c-1.5-2.6-2.2-5.5-2.2-8.8c0-3.3,0.7-6.2,2.2-8.8c1.5-2.6,3.5-4.6,6-6.1
			c2.6-1.5,5.4-2.2,8.6-2.2c3.2,0,6,0.7,8.6,2.2c2.6,1.5,4.6,3.5,6,6.1c1.5,2.6,2.2,5.5,2.2,8.8c0,3.3-0.7,6.2-2.2,8.8
			c-1.5,2.6-3.5,4.6-6,6.1c-2.6,1.5-5.4,2.2-8.6,2.2C750.7,1210.7,747.8,1210,745.3,1208.6z M760.8,1206c2-1.2,3.6-2.9,4.8-5
			c1.2-2.1,1.8-4.6,1.8-7.3c0-2.7-0.6-5.2-1.8-7.3c-1.2-2.1-2.8-3.8-4.8-5c-2-1.2-4.3-1.8-6.9-1.8c-2.6,0-4.9,0.6-6.9,1.8
			c-2,1.2-3.6,2.9-4.8,5c-1.2,2.1-1.8,4.6-1.8,7.3c0,2.7,0.6,5.2,1.8,7.3c1.2,2.1,2.8,3.8,4.8,5c2,1.2,4.3,1.8,6.9,1.8
			C756.4,1207.8,758.7,1207.2,760.8,1206z"/>
		<path class="st1" d="M807,1180.3c2.4,2.4,3.7,6,3.7,10.5v19.6h-3.2v-19.4c0-3.8-1-6.6-2.9-8.6c-1.9-2-4.6-3-8-3
			c-3.9,0-7.1,1.2-9.3,3.5c-2.3,2.4-3.4,5.5-3.4,9.5v17.9h-3.2v-33.6h3.1v7.3c1.2-2.4,2.9-4.2,5.2-5.5c2.3-1.3,5-2,8.1-2
			C801.2,1176.7,804.5,1177.9,807,1180.3z"/>
		<path class="st1" d="M844.7,1168.4v19.2h24v3h-24v19.9h-3.3v-45h30.1v3H844.7z"/>
		<path class="st1" d="M884.3,1208.6c-2.6-1.5-4.6-3.5-6-6.1c-1.5-2.6-2.2-5.5-2.2-8.8c0-3.3,0.7-6.2,2.2-8.8c1.5-2.6,3.5-4.6,6-6.1
			c2.5-1.5,5.4-2.2,8.6-2.2c3.2,0,6,0.7,8.6,2.2s4.6,3.5,6,6.1c1.5,2.6,2.2,5.5,2.2,8.8c0,3.3-0.7,6.2-2.2,8.8
			c-1.5,2.6-3.5,4.6-6,6.1c-2.6,1.5-5.4,2.2-8.6,2.2C889.7,1210.7,886.9,1210,884.3,1208.6z M899.8,1206c2-1.2,3.6-2.9,4.8-5
			c1.2-2.1,1.8-4.6,1.8-7.3c0-2.7-0.6-5.2-1.8-7.3c-1.2-2.1-2.8-3.8-4.8-5c-2-1.2-4.3-1.8-6.9-1.8c-2.6,0-4.9,0.6-6.9,1.8
			c-2,1.2-3.6,2.9-4.8,5c-1.2,2.1-1.8,4.6-1.8,7.3c0,2.7,0.6,5.2,1.8,7.3c1.2,2.1,2.8,3.8,4.8,5c2,1.2,4.3,1.8,6.9,1.8
			C895.5,1207.8,897.8,1207.2,899.8,1206z"/>
		<path class="st1" d="M927.6,1178.6c2.2-1.3,4.8-2,8-2v3.2l-0.8-0.1c-3.7,0-6.6,1.2-8.7,3.5c-2.1,2.3-3.2,5.6-3.2,9.7v17.5h-3.2
			v-33.6h3.1v7.3C923.8,1181.8,925.4,1179.9,927.6,1178.6z"/>
		<path class="st1" d="M965,1209.1c-3-1.1-5.3-2.6-7-4.4l1.5-2.4c1.6,1.7,3.7,3,6.4,4.1c2.7,1.1,5.5,1.6,8.5,1.6
			c4.3,0,7.5-0.8,9.7-2.4c2.2-1.6,3.3-3.8,3.3-6.4c0-2-0.6-3.6-1.7-4.8c-1.2-1.2-2.6-2.1-4.3-2.8c-1.7-0.6-4-1.3-6.9-2
			c-3.3-0.8-5.9-1.6-7.9-2.4c-2-0.8-3.7-2-5.1-3.6c-1.4-1.6-2.1-3.8-2.1-6.5c0-2.2,0.6-4.2,1.7-6c1.2-1.8,2.9-3.3,5.3-4.3
			c2.4-1.1,5.3-1.6,8.9-1.6c2.5,0,4.9,0.4,7.3,1.1c2.4,0.7,4.5,1.7,6.2,3l-1.2,2.6c-1.8-1.2-3.8-2.2-5.9-2.8c-2.2-0.6-4.3-1-6.4-1
			c-4.2,0-7.3,0.8-9.5,2.5c-2.1,1.7-3.2,3.8-3.2,6.5c0,2,0.6,3.6,1.7,4.8c1.2,1.2,2.6,2.1,4.3,2.8c1.7,0.6,4.1,1.3,7,2.1
			c3.3,0.8,5.9,1.6,7.9,2.4c2,0.8,3.7,1.9,5,3.5c1.4,1.6,2.1,3.7,2.1,6.3c0,2.2-0.6,4.2-1.8,6c-1.2,1.8-3,3.2-5.4,4.3
			c-2.4,1.1-5.4,1.6-9,1.6C971.1,1210.8,967.9,1210.2,965,1209.1z"/>
		<path class="st1" d="M1000.4,1168c-0.5-0.5-0.8-1.1-0.8-1.8c0-0.7,0.3-1.4,0.8-1.9c0.5-0.5,1.1-0.8,1.9-0.8c0.7,0,1.4,0.2,1.9,0.7
			s0.8,1.1,0.8,1.8s-0.3,1.3-0.8,1.9s-1.1,0.8-1.9,0.8C1001.6,1168.7,1000.9,1168.5,1000.4,1168z M1000.7,1176.9h3.2v33.6h-3.2
			V1176.9z"/>
		<path class="st1" d="M1047.7,1176.9v30c0,5.6-1.4,9.7-4.1,12.3c-2.7,2.7-6.8,4-12.2,4c-3.1,0-6-0.5-8.7-1.4
			c-2.7-0.9-5-2.3-6.6-3.9l1.7-2.4c1.7,1.5,3.7,2.7,6,3.6c2.4,0.9,4.9,1.3,7.5,1.3c4.5,0,7.8-1.1,9.9-3.2c2.1-2.1,3.2-5.4,3.2-9.9
			v-5.7c-1.4,2.4-3.3,4.3-5.7,5.7c-2.4,1.3-5.2,2-8.2,2c-3.1,0-6-0.7-8.5-2.1c-2.6-1.4-4.6-3.3-6-5.8c-1.5-2.5-2.2-5.3-2.2-8.4
			s0.7-5.9,2.2-8.4c1.5-2.5,3.5-4.4,6-5.8c2.5-1.4,5.4-2.1,8.5-2.1c3.1,0,5.9,0.7,8.4,2.1c2.5,1.4,4.4,3.3,5.7,5.8v-7.6H1047.7z
			 M1037.9,1204.7c2.1-1.1,3.7-2.7,4.9-4.8c1.2-2,1.8-4.4,1.8-7c0-2.6-0.6-4.9-1.8-6.9c-1.2-2-2.8-3.6-4.9-4.7
			c-2.1-1.1-4.5-1.7-7.1-1.7s-5,0.6-7,1.7s-3.7,2.7-4.9,4.7c-1.2,2-1.8,4.3-1.8,6.9c0,2.6,0.6,4.9,1.8,7c1.2,2,2.8,3.6,4.9,4.8
			c2.1,1.1,4.4,1.7,7,1.7S1035.8,1205.8,1037.9,1204.7z"/>
		<path class="st1" d="M1087.7,1180.3c2.4,2.4,3.7,6,3.7,10.5v19.6h-3.2v-19.4c0-3.8-1-6.6-2.9-8.6c-1.9-2-4.6-3-8-3
			c-3.9,0-7.1,1.2-9.3,3.5c-2.3,2.4-3.4,5.5-3.4,9.5v17.9h-3.2v-47.7h3.2v21.2c1.2-2.3,2.9-4.1,5.1-5.4c2.3-1.3,5-1.9,8-1.9
			C1081.9,1176.7,1085.3,1177.9,1087.7,1180.3z"/>
		<path class="st1" d="M1121.3,1208.4c-0.8,0.8-1.8,1.4-3.1,1.8c-1.2,0.4-2.5,0.6-3.8,0.6c-2.9,0-5.2-0.8-6.8-2.4
			c-1.6-1.6-2.4-3.8-2.4-6.7v-21.9h-6.2v-2.8h6.2v-7.3h3.2v7.3h10.7v2.8h-10.7v21.6c0,2.2,0.5,3.8,1.6,5c1.1,1.1,2.6,1.7,4.7,1.7
			c2.1,0,3.8-0.6,5.2-1.9L1121.3,1208.4z"/>
	</g>
</g>
</svg>
